<?xml version="1.0" encoding="UTF-8" standalone="no"?>
<!-- Created with Inkscape (http://www.inkscape.org/) -->

<svg
   xmlns:dc="http://purl.org/dc/elements/1.1/"
   xmlns:cc="http://creativecommons.org/ns#"
   xmlns:rdf="http://www.w3.org/1999/02/22-rdf-syntax-ns#"
   xmlns:svg="http://www.w3.org/2000/svg"
   xmlns="http://www.w3.org/2000/svg"
   xmlns:sodipodi="http://sodipodi.sourceforge.net/DTD/sodipodi-0.dtd"
   xmlns:inkscape="http://www.inkscape.org/namespaces/inkscape"
   width="38.547794"
   height="62.947819"
   viewBox="0 0 10.199104 16.654945"
   version="1.1"
   id="svg27"
   sodipodi:docname="delaware.svg"
   inkscape:export-filename="C:\Users\bailey\Pictures\USAmap.png"
   inkscape:export-xdpi="96"
   inkscape:export-ydpi="96"
   inkscape:version="0.92.3 (2405546, 2018-03-11)">
  <defs
     id="defs21" />
  <sodipodi:namedview
     id="base"
     pagecolor="#ffffff"
     bordercolor="#666666"
     borderopacity="1.0"
     inkscape:pageopacity="0.0"
     inkscape:pageshadow="2"
     inkscape:zoom="0.49497475"
     inkscape:cx="-658.10125"
     inkscape:cy="-53.521919"
     inkscape:document-units="mm"
     inkscape:current-layer="layer14"
     showgrid="false"
     inkscape:window-width="1920"
     inkscape:window-height="1017"
     inkscape:window-x="1912"
     inkscape:window-y="-8"
     inkscape:window-maximized="1"
     units="px"
     fit-margin-top="0"
     fit-margin-left="0"
     fit-margin-right="0"
     fit-margin-bottom="0" />
  <metadata
     id="metadata24">
    <rdf:RDF>
      <cc:Work
         rdf:about="">
        <dc:format>image/svg+xml</dc:format>
        <dc:type
           rdf:resource="http://purl.org/dc/dcmitype/StillImage" />
        <dc:title></dc:title>
      </cc:Work>
    </rdf:RDF>
  </metadata>
  <g
     inkscape:label="Layer 1"
     inkscape:groupmode="layer"
     id="layer1"
     style="display:none;opacity:0.54696129"
     transform="translate(-437.2384,-100.57888)" />
  <g
     inkscape:groupmode="layer"
     id="layer52"
     inkscape:label="Etc"
     style="display:none"
     transform="translate(-437.2384,-130.86856)">
    <path
       style="fill:none;stroke:#000000;stroke-width:0.76499999;stroke-linecap:butt;stroke-linejoin:miter;stroke-miterlimit:4;stroke-dasharray:none;stroke-opacity:1"
       d="M -0.18898809,237.52024 H 78.90253 l 37.70312,38.55357 47.3642,-0.1 30.66918,29.93419 -0.4009,21.64884 -193.91767863,-0.3824 z"
       id="path277"
       inkscape:connector-curvature="0" />
    <path
       style="fill:none;stroke:#000000;stroke-width:0.76499999;stroke-linecap:butt;stroke-linejoin:miter;stroke-miterlimit:4;stroke-dasharray:none;stroke-opacity:1"
       d="m 116.60565,276.07381 -0.0945,31.84449 19.56028,19.56027"
       id="path279"
       inkscape:connector-curvature="0" />
  </g>
  <g
     inkscape:groupmode="layer"
     id="layer2"
     inkscape:label="Michigan"
     style="display:none"
     transform="translate(-437.2384,-100.57888)">
    <path
       style="fill:#2affd5;stroke:#000000;stroke-width:0.5;stroke-linecap:round;stroke-linejoin:round;stroke-miterlimit:4;stroke-dasharray:none;stroke-opacity:1"
       d="m 336.69279,93.540967 2.3386,-2.071339 0.26728,-1.737251 1.13589,-2.138156 1.06907,-6.214018 c 0,0 -1.73725,-4.276312 -1.80406,-4.610398 -0.0668,-0.334087 -2.53907,-4.81085 -2.53907,-4.81085 l 1.1359,-3.34087 -0.93543,-2.873148 1.06908,-2.672696 0.0668,-1.670434 0.53454,-1.202714 -0.60134,-1.603615 1.40316,-0.734992 v -1.670433 c 0,0 -0.40092,-1.002263 0,-1.002263 0.4009,0 2.13815,-1.069078 2.13815,-1.069078 l 0.93544,-2.204974 1.20271,-0.534538 0.20045,1.202714 -1.06908,2.00452 -0.13364,2.004521 0.53454,-0.06682 1.8709,-1.202713 -0.26726,-2.80633 -0.26728,-1.937705 0.93543,-1.00226 h 1.60362 l 0.93546,-0.601356 -1.40317,-0.801809 -0.60137,-2.00452 3.47451,-2.204974 1.80409,1.670433 1.73722,-0.534537 3.14042,1.737251 2.60589,0.868625 1.1359,-0.06682 0.53454,1.403167 1.20272,0.935442 0.20045,1.202714 -0.80182,-0.06682 -0.46771,0.734992 0.26726,0.734991 1.20272,1.00226 0.60134,0.668174 0.13364,5.746294 -1.33636,0.668174 -0.80179,3.140416 -1.87089,0.935445 -0.20045,2.672694 2.07134,1.269532 1.67042,-1.469983 0.93546,-2.004523 0.46771,-1.603616 3.14041,-1.403165 2.40544,2.071339 c 0,0 1.60361,5.679477 1.60361,6.013563 0,0.334087 1.20272,3.608139 1.20272,3.608139 l -0.20045,4.142679 -1.60361,1.469983 -0.66818,2.806329 c 0,0 -1.13589,1.069078 -1.33636,1.403165 -0.20045,0.334087 -0.26726,2.539061 -0.26726,2.539061 0,0 -0.86862,1.536798 -1.13591,1.603616 -0.26725,0.06682 -0.80179,1.737251 -0.80179,1.737251 l 0.26726,1.069078 -12.2944,2.004523 v -0.801809 z"
       id="path45"
       inkscape:connector-curvature="0" />
    <path
       style="fill:#2affd5;stroke:#000000;stroke-width:0.5;stroke-linecap:round;stroke-linejoin:round;stroke-miterlimit:4;stroke-dasharray:none;stroke-opacity:1"
       d="m 326.61868,54.386428 -1.32292,-1.181174 -0.94493,-5.622396 -2.59861,-0.803201 -0.14174,-1.039434 -7.08705,-1.559153 -0.47246,-0.472469 -9.68566,-2.078868 -1.74813,-2.598587 0.85045,-0.8032 1.4174,-0.236234 1.98438,-1.27567 0.0472,-0.897694 3.26004,-0.425222 2.40961,-1.606399 1.51191,-0.708705 0.47247,-1.559153 1.13392,-1.039434 0.70872,-0.472469 2.12611,-2.078871 2.36233,-0.944941 2.12614,-0.188987 0.6142,0.803199 -2.36236,0.566965 -0.51972,1.653646 -1.55913,0.566965 -0.14174,0.992187 -1.46468,2.267858 0.0945,1.181174 0.56695,0.141742 0.80322,-0.992187 1.18115,-0.897694 0.99219,0.614211 3.73253,0.850445 0.75594,1.984375 1.65365,1.464659 1.65364,-0.236236 0.8032,-0.425222 1.74815,0.992187 0.8032,-0.566965 1.13392,-0.141739 3.44903,-2.693083 4.34674,-0.28348 4.44121,-1.795388 0.33073,3.307291 2.07889,0.236236 3.77975,-0.566965 0.89768,-1.181174 0.94496,0.472469 v 4.063243 l 2.40959,2.031622 0.99219,0.141743 -0.37799,-1.039435 -0.51972,-0.614211 0.18899,-0.519719 h 2.26788 l 0.99219,1.46466 c 0,0 -0.51972,1.181174 -0.70872,1.22842 -0.18899,0.04725 -1.98437,-0.472469 -1.98437,-0.472469 0,0 -1.22844,0 -1.41743,0 -0.18896,0 -2.12611,-0.377976 -2.12611,-0.377976 0,0 -1.27566,0.425223 -1.55914,0.425223 -0.2835,0 -0.94496,0.04725 -0.94496,0.04725 l -1.65364,0.8032 -3.77976,-0.850447 -2.74032,0.188989 -1.27566,1.370163 -5.05544,0.850445 -1.13393,2.456847 -0.99219,-1.511906 -2.83482,1.370163 -0.8032,-1.039434 -0.75594,0.566965 -1.32292,5.149927 z"
       id="path147"
       inkscape:connector-curvature="0" />
  </g>
  <g
     inkscape:groupmode="layer"
     id="layer3"
     inkscape:label="Ohio"
     style="display:none"
     transform="translate(-437.2384,-130.86856)">
    <path
       style="fill:#00ccff;stroke:#000000;stroke-width:0.5;stroke-linecap:round;stroke-linejoin:round;stroke-miterlimit:4;stroke-dasharray:none;stroke-opacity:1"
       d="m 354.4662,122.96202 3.57175,30.88374 3.49628,-0.33073 1.32292,0.42522 0.99218,2.64583 3.21279,-0.0472 0.99218,1.03943 1.13393,0.0945 1.13395,-0.8032 1.74813,0.0472 0.51972,0.8977 1.88986,-1.32292 1.65365,-0.85045 0.2835,1.46466 2.69306,1.74814 1.13395,0.37798 1.13393,-0.56697 0.18899,-1.6064 1.08667,-0.7087 0.0473,-3.44903 0.70868,-1.65365 1.27569,0.8032 0.0472,0.61421 0.80322,-0.37797 0.66146,-0.75596 -1.18118,-2.07887 2.65845,-3.50457 1.46998,-0.0668 4.04246,-4.37654 -0.10023,-10.12283 -0.20047,-0.73499 0.86863,-0.40091 -2.20496,-15.90253 c 0,0 -6.01358,3.14041 -6.41448,3.34087 -0.4009,0.20045 -3.20723,3.80859 -3.20723,3.80859 l -4.20949,1.13589 c 0,0 -1.73725,1.33635 -3.14042,0.80181 -1.40316,-0.53454 -0.86863,-0.33409 -1.67045,-1.06908 -0.80179,-0.73499 -3.67495,-0.0668 -3.94221,-0.0668 -0.26728,0 -2.20498,-1.33636 -2.20498,-1.33636 z"
       id="path48"
       inkscape:connector-curvature="0" />
  </g>
  <g
     inkscape:groupmode="layer"
     id="layer4"
     inkscape:label="Indiana"
     style="display:none"
     transform="translate(-437.2384,-130.86856)">
    <path
       style="fill:#80ffe6;stroke:#000000;stroke-width:0.5;stroke-linecap:round;stroke-linejoin:round;stroke-miterlimit:4;stroke-dasharray:none;stroke-opacity:1"
       d="m 358.03795,153.84576 v 0.99218 l 0.6142,0.8977 0.0945,1.18117 c 0,0 -2.7876,1.74814 -2.97656,1.74814 -0.189,0 -2.17337,0.23624 -2.17337,0.23624 l -0.33073,2.59859 -3.87427,3.77976 c 0,0 -0.0945,2.45684 -0.33073,2.55134 -0.23622,0.0945 -2.69308,0.0472 -2.69308,0.0472 l -0.28348,-1.5119 -2.22059,1.55915 -0.0473,2.26786 -1.22843,0.28348 -0.61421,-1.51191 -0.99218,-0.37797 -2.07886,1.46465 -0.33073,1.32292 -1.84264,-1.88988 -4.34673,1.03944 -2.03163,1.08668 0.47247,-4.96094 1.27568,-1.41741 c 0,0 1.98438,-3.9215 1.98438,-4.11049 0,-0.18899 -0.14174,-3.73252 -0.14174,-3.73252 l -1.22843,-1.74814 0.47246,-1.88988 -2.17336,-29.00967 2.92933,1.18118 2.75082,-2.09212 17.77341,-1.67044 z"
       id="path51"
       inkscape:connector-curvature="0" />
  </g>
  <g
     inkscape:groupmode="layer"
     id="layer5"
     inkscape:label="Pennsylvania"
     style="display:none"
     transform="translate(-437.2384,-130.86856)">
    <path
       style="fill:#5555ff;stroke:#000000;stroke-width:0.5;stroke-linecap:round;stroke-linejoin:round;stroke-miterlimit:4;stroke-dasharray:none;stroke-opacity:1"
       d="m 391.54986,114.34261 2.34857,-2.02699 0.85045,-0.37797 2.55133,-2.45685 0.47249,3.44904 37.65587,-7.51228 1.03944,0.94494 h 1.79538 l 1.03942,3.02381 1.22843,1.22842 h 1.13393 l 0.66146,0.94494 -0.94494,1.51191 0.189,1.79538 -1.32292,2.07887 0.85045,1.03944 0.0945,0.85044 -1.51191,0.94494 0.94494,1.88988 1.13395,-0.0945 0.28347,1.6064 3.77976,2.55134 -2.83482,2.74033 -0.66146,1.79538 -1.98438,1.22843 -1.2284,-0.47248 c 0,0 -1.22844,1.6064 -1.60642,1.7009 -0.37796,0.0945 -41.95535,7.9375 -41.95535,7.9375 l -1.79726,-10.4187 z"
       id="path54"
       inkscape:connector-curvature="0" />
  </g>
  <g
     inkscape:groupmode="layer"
     id="layer6"
     inkscape:label="New York"
     style="display:none"
     transform="translate(-437.2384,-130.86856)">
    <path
       style="fill:#9955ff;stroke:#000000;stroke-width:0.5;stroke-linecap:round;stroke-linejoin:round;stroke-miterlimit:4;stroke-dasharray:none;stroke-opacity:1"
       d="m 397.30021,109.4808 2.12614,-2.26786 1.13392,-1.03943 1.22841,-0.85045 0.56697,-1.5119 1.32292,-1.32292 -0.28347,-2.834818 -1.41743,-0.283482 -0.56695,-2.74033 4.15772,-1.795385 5.57516,-1.039435 1.70088,0.283483 1.03944,0.472469 3.1183,-1.41741 3.1183,-0.283482 1.7009,-3.401785 1.98437,-0.188989 0.66146,-0.661459 V 87.46369 l -0.75594,-1.322917 v -0.755954 l 0.66146,-1.700893 -1.98437,-0.09449 -0.56698,-1.133927 v -1.322917 l 3.68527,-2.834823 1.03945,-2.55134 4.3467,-5.480653 1.98438,-0.755954 3.02382,-0.850445 h 2.45684 l 5.76413,-1.795388 c 0,0 0.2835,1.795388 0.47247,2.362353 0.18899,0.566963 1.13395,2.83482 1.13395,2.83482 l 0.56695,3.874257 -0.47247,1.795385 1.79538,3.685268 -0.0945,1.511906 1.22841,0.755951 1.13392,3.96875 0.75597,1.889882 0.47247,3.212798 c 0,0 -0.28348,5.38616 -0.28348,5.953125 0,0.566963 0.75594,4.819196 0.75594,4.819196 l 1.13393,6.80357 -0.56695,2.07887 -0.0945,0.66146 0.47247,0.75595 -0.94494,1.41741 0.28348,0.85044 1.13395,-0.0945 1.79538,-2.55134 2.45684,0.37798 4.25223,-2.17336 2.36236,-2.17337 c 0,0 2.83482,0.75596 2.45684,0.94494 -0.37798,0.18899 -7.65403,5.95313 -7.65403,5.95313 l -7.46503,3.02381 c 0,0 -0.85042,-0.75596 -0.85042,-1.13393 0,-0.37798 0.66145,-4.06324 0.66145,-4.06324 l -8.69346,-2.64584 -0.66146,-0.94494 h -1.13393 l -1.22843,-1.22842 -1.03942,-3.02381 H 436.468 l -1.03944,-0.94494 -37.65587,7.51228 z"
       id="path57"
       inkscape:connector-curvature="0" />
  </g>
  <g
     inkscape:groupmode="layer"
     id="layer7"
     inkscape:label="Vermont"
     style="display:none"
     transform="translate(-437.2384,-130.86856)">
    <path
       style="fill:#d42aff;stroke:#000000;stroke-width:0.5;stroke-linecap:round;stroke-linejoin:round;stroke-miterlimit:4;stroke-dasharray:none;stroke-opacity:1"
       d="m 444.12201,66.863988 14.26861,-3.779763 0.56697,1.322917 0.0945,1.511906 0.75594,1.889879 -0.18897,0.755954 0.47247,0.755951 -2.07888,2.55134 -1.79539,0.47247 0.47247,0.850447 c 0,0 1.03944,0.661458 0.66146,0.944938 -0.37796,0.283483 -0.56695,11.717264 -0.56695,11.717264 l 0.28347,1.322916 -0.47246,2.267858 1.03944,1.889879 -6.52013,1.417415 -0.47247,-3.212798 -0.75596,-1.889882 -1.13393,-3.96875 -1.22841,-0.755952 0.0945,-1.511905 -1.79538,-3.685268 0.47247,-1.795386 -0.56695,-3.874256 c -0.99561,-2.118745 -1.49228,-3.834304 -1.60642,-5.197174 z"
       id="path60"
       inkscape:connector-curvature="0"
       sodipodi:nodetypes="ccccccccccccccccccccccccc" />
  </g>
  <g
     inkscape:groupmode="layer"
     id="layer8"
     inkscape:label="Massachusetts"
     style="display:none"
     transform="translate(-437.2384,-130.86856)">
    <path
       style="fill:#c837ab;stroke:#000000;stroke-width:0.5;stroke-linecap:round;stroke-linejoin:round;stroke-miterlimit:4;stroke-dasharray:none;stroke-opacity:1"
       d="m 451.11455,92.755359 6.52013,-1.417415 10.20535,-2.598584 1.13392,-1.464659 2.17337,-1.228424 1.84264,2.456847 -1.74816,3.118302 0.99219,1.511906 1.51191,-0.425222 3.35454,4.535712 1.84264,0.330729 0.85045,-0.09449 c 0,0 1.70088,-0.897694 1.55914,-1.133928 -0.14174,-0.236235 -0.56695,-1.700895 -0.56695,-1.700895 l -1.18118,-0.661458 -0.70871,0.519718 -0.66146,-1.08668 1.65364,-0.0945 1.70091,1.653646 1.03941,3.023811 -3.26004,0.944939 -1.46465,1.039436 -1.22843,1.37016 -0.42522,-2.409596 -2.03163,1.275666 0.0473,1.7009 -1.27566,0.56696 -1.74816,-2.834819 -2.36233,-2.504093 -17.67039,4.252232 c 0,0 -0.2835,-1.748141 -0.42524,-2.22061 0.0473,-1.842634 0.33071,-6.425592 0.33071,-6.425592 z"
       id="path63"
       inkscape:connector-curvature="0"
       sodipodi:nodetypes="ccccccccccccccccccccccccccccccccc" />
    <path
       style="fill:#a02c89;stroke:#000000;stroke-width:0.5;stroke-linecap:round;stroke-linejoin:round;stroke-miterlimit:4;stroke-dasharray:none;stroke-opacity:1"
       d="m 479.48154,102.56602 c -0.13365,-0.0835 -1.88759,-1.21942 -1.88759,-1.21942 l -1.70387,1.80407 0.81852,0.56795 z"
       id="path75"
       inkscape:connector-curvature="0" />
    <path
       style="fill:#a02c89;stroke:#000000;stroke-width:0.5;stroke-linecap:round;stroke-linejoin:round;stroke-miterlimit:4;stroke-dasharray:none;stroke-opacity:1"
       d="m 483.9917,102.74977 c -0.10022,-0.0668 -0.93543,-1.62032 -0.93543,-1.62032 l -0.80182,0.3842 0.15033,1.62032 z"
       id="path81"
       inkscape:connector-curvature="0" />
  </g>
  <g
     inkscape:groupmode="layer"
     id="layer9"
     inkscape:label="Rhode Island"
     style="display:none"
     transform="translate(-437.2384,-130.86856)">
    <path
       style="fill:#e580ff;stroke:#000000;stroke-width:0.5;stroke-linecap:round;stroke-linejoin:round;stroke-miterlimit:4;stroke-dasharray:none;stroke-opacity:1"
       d="m 472.98998,102.48824 -1.9844,0.99219 -0.51972,-0.0709 -0.68508,1.34654 -2.29148,1.13393 -0.85045,-4.60659 -1.22844,-3.330913 3.44909,-0.803201 2.36233,2.504093 z"
       id="path84"
       inkscape:connector-curvature="0" />
  </g>
  <g
     inkscape:groupmode="layer"
     id="layer10"
     inkscape:label="Connecticut"
     style="display:none"
     transform="translate(-437.2384,-130.86856)">
    <path
       style="fill:#aa87de;stroke:#000000;stroke-width:0.5;stroke-linecap:round;stroke-linejoin:round;stroke-miterlimit:4;stroke-dasharray:none;stroke-opacity:1"
       d="m 467.5093,105.89 -3.69644,1.63721 c 0,0 -1.47,0.60136 -1.60362,0.60136 -0.13364,0 -1.80408,0.30068 -1.80408,0.30068 l -1.53678,0.83521 -0.66818,-0.63476 -1.30294,1.90429 -4.36528,3.29354 -0.4725,-0.75595 0.66146,-2.74033 -1.51183,-8.92969 14.2213,-3.449065 1.22844,3.330915 z"
       id="path87"
       inkscape:connector-curvature="0" />
  </g>
  <g
     inkscape:groupmode="layer"
     id="layer11"
     inkscape:label="New Jersey"
     style="display:none"
     transform="translate(-437.2384,-130.86856)">
    <path
       style="fill:#5f5fd3;stroke:#000000;stroke-width:0.5;stroke-linecap:round;stroke-linejoin:round;stroke-miterlimit:4;stroke-dasharray:none;stroke-opacity:1"
       d="m 450.31575,118.38504 0.16703,1.10248 -1.80406,1.33635 0.16703,0.30068 1.73725,-0.10023 0.73499,-0.83521 0.50115,1.80406 0.30067,0.80181 -0.0334,4.51018 0.33409,0.53454 -0.50112,2.93996 -3.20723,5.98016 -0.40092,2.67269 -1.43655,1.10249 -0.20048,-1.63703 0.33409,-0.43431 -0.36748,-0.90203 -2.93997,-0.735 c 0,0 -1.83748,-0.90203 -1.97112,-0.96885 -0.13364,-0.0668 -1.5702,-1.5368 -1.5702,-1.5368 l -0.26728,-0.73499 0.45003,-2.08808 1.9844,-1.22843 0.66146,-1.79538 2.83483,-2.74033 -3.77979,-2.55134 -0.28345,-1.6064 -1.13395,0.0945 -0.94496,-1.88988 1.51191,-0.94494 -0.0945,-0.85044 -0.85045,-1.03944 1.32292,-2.07887 -0.189,-1.79538 0.94494,-1.51191 8.69344,2.64583 z"
       id="path90"
       inkscape:connector-curvature="0" />
  </g>
  <g
     inkscape:groupmode="layer"
     id="layer12"
     inkscape:label="New Hampshire"
     style="display:none"
     transform="translate(-437.2384,-130.86856)">
    <path
       style="fill:#ff2ad4;stroke:#000000;stroke-width:0.5;stroke-linecap:round;stroke-linejoin:round;stroke-miterlimit:4;stroke-dasharray:none;stroke-opacity:1"
       d="m 471.14732,86.046277 0.81724,-2.740366 -1.70383,-0.400905 0.20045,-1.737251 -2.30519,-0.567947 -0.10025,-1.670433 -6.34764,-20.245668 -0.56793,1.5368 -1.23613,-0.968854 -0.56796,0.968854 -0.0668,0.935443 -0.87865,1.928275 0.56697,1.322917 0.0945,1.511906 0.75594,1.889879 -0.18897,0.755954 0.47247,0.755949 -2.07888,2.55134 -1.79539,0.472472 0.47247,0.850447 0.80888,0.589346 -0.16703,0.300678 -0.10022,0.367496 -0.44712,11.404682 0.28347,1.322914 -0.47246,2.26786 1.03944,1.889879 10.20535,-2.598584 1.13392,-1.464659 z"
       id="path93"
       inkscape:connector-curvature="0" />
  </g>
  <g
     inkscape:groupmode="layer"
     id="layer13"
     inkscape:label="Maine"
     style="display:none"
     transform="translate(-437.2384,-130.86856)">
    <path
       style="fill:#ff5599;stroke:#000000;stroke-width:0.5;stroke-linecap:round;stroke-linejoin:round;stroke-miterlimit:4;stroke-dasharray:none;stroke-opacity:1"
       d="m 471.96456,83.305911 0.86003,-3.82697 -0.0945,-2.338727 0.92134,-0.921316 -0.56698,-1.700895 1.63002,-1.795386 0.92133,0.755952 3.61439,-1.984375 v -1.653646 l 1.65365,-0.07087 0.87408,-1.511906 -0.25988,-2.763952 c 0,0 0.61421,-0.496093 0.54335,-0.590587 -0.0709,-0.09449 -0.99219,-1.370163 -0.99219,-1.370163 l 1.08667,-0.614212 1.03945,1.960751 c 0,0 0.8977,-0.377976 0.87407,-0.283483 -0.0235,0.0945 0.0472,1.299295 0.0472,1.299295 l 0.96859,0.377976 0.47247,-2.008 -0.70872,-0.944938 1.84264,-1.393788 0.3071,-0.921316 1.27566,0.28348 0.14174,0.992187 1.01582,0.0945 4.39398,-4.960937 0.92131,-0.02363 1.17142,-3.451285 -2.10476,-3.107008 -1.03566,0.100227 v 1.102487 l -0.76841,-0.03341 -1.90431,-1.269532 -0.20045,-3.574729 -3.20722,-0.100227 -5.14493,-16.203213 -4.51019,-1.804069 -3.07359,2.338607 -0.0334,0.53454 -0.60134,0.601356 -1.83748,-0.400905 -1.00227,-1.837478 -0.93543,0.03341 -1.10249,2.672696 -2.13816,6.34765 0.20045,3.875408 -0.96885,2.037929 0.10023,3.073601 1.2361,1.135896 -2.53904,5.111528 -0.4009,4.376539 -2.2384,-0.267269 6.34764,20.245668 0.10025,1.670434 2.30519,0.567946 -0.20045,1.737249 z"
       id="path96"
       inkscape:connector-curvature="0" />
    <path
       style="fill:#ff5599;stroke:#000000;stroke-width:0.5;stroke-linecap:round;stroke-linejoin:round;stroke-miterlimit:4;stroke-dasharray:none;stroke-opacity:1"
       d="m 488.23893,63.096036 c -0.0591,-0.09449 -0.74414,-0.850445 -0.7914,-0.815012 -0.0472,0.03544 -1.21661,1.086684 -1.21661,1.086684 l 0.50792,1.204798 0.92131,0.224422 0.0354,-1.216609 z"
       id="path106"
       inkscape:connector-curvature="0" />
    <path
       style="fill:#ff5599;stroke:#000000;stroke-width:0.5;stroke-linecap:round;stroke-linejoin:round;stroke-miterlimit:4;stroke-dasharray:none;stroke-opacity:1"
       d="m 484.24655,68.068784 c 0,-0.106304 0.0945,-1.334727 0.0945,-1.334727 l -0.94496,-0.791387 -1.0985,0.921316 0.89771,1.429223 z"
       id="path108"
       inkscape:connector-curvature="0" />
  </g>
  <g
     inkscape:groupmode="layer"
     id="layer14"
     inkscape:label="Delaware"
     style="display:inline"
     transform="translate(-437.2384,-130.86856)">
    <path
       style="fill:#2a2aff;stroke:#000000;stroke-width:0.26458332px;stroke-linecap:butt;stroke-linejoin:miter;stroke-opacity:1"
       d="m 439.89222,133.58599 -0.30591,-0.45805 -0.44886,0.51971 -0.0472,0.73233 1.27566,1.96075 1.3938,0.56697 1.91349,4.4176 1.86627,1.03943 0.54332,-0.30711 c 0,0 1.3938,4.20499 1.2048,4.27586 -0.18899,0.0709 -5.81138,1.03943 -5.81138,1.03943 l -4.08686,-14.48121 0.37798,-0.3071 1.34657,-1.55917 1.22838,0.47248 z"
       id="path99"
       inkscape:connector-curvature="0" />
  </g>
  <g
     inkscape:groupmode="layer"
     id="layer15"
     inkscape:label="Maryland"
     style="display:none"
     transform="translate(-437.2384,-130.86856)">
    <path
       style="fill:#0055d4;stroke:#000000;stroke-width:0.5;stroke-linecap:round;stroke-linejoin:round;stroke-miterlimit:4;stroke-dasharray:none;stroke-opacity:1"
       d="m 447.27555,146.24789 -0.0668,3.00678 -0.66815,2.3052 -3.8086,1.5368 -1.20272,-0.30068 -1.40316,-2.53906 c 0,0 -1.06908,0.36749 -1.20272,0.36749 -0.13364,0 -1.9377,-0.26727 -1.9377,-0.26727 l -1.13588,-2.47224 0.26725,-1.20271 0.90205,-0.53454 -1.23614,-0.96885 -0.56793,1.10248 -0.0668,-2.03793 1.00227,-0.56794 -0.13364,-2.77292 -1.30294,-0.56795 0.60137,-2.17157 0.93543,-0.80181 -0.33409,-0.8018 -2.17156,1.77066 -0.16704,1.30293 -0.66817,0.7684 0.70156,1.36976 -0.63476,3.60814 1.00227,2.93996 1.26952,0.90204 -0.0668,1.26953 0.7684,0.83522 -0.63476,1.20271 -2.83975,-0.83522 -2.07134,0.20045 -2.70611,-0.7684 -0.60134,-2.07134 1.43655,-1.40316 -0.0668,-1.87089 0.93543,-1.50339 -1.20272,-0.60135 -0.80179,0.93544 c 0,0 -1.00227,-0.83522 -1.20272,-0.83522 -0.20044,0 -2.53904,-0.43431 -2.53904,-0.43431 l 0.0334,-1.67043 -2.00451,-0.53455 -1.67045,-1.97111 -3.07358,-1.40316 -2.97339,1.87088 -1.50339,0.30068 -0.93544,-0.56795 -0.73498,1.46999 -1.03569,1.23612 -1.20271,-0.20045 -2.70611,3.40768 -1.10246,-6.34765 32.64304,-6.03968 4.08686,14.48121 z"
       id="path102"
       inkscape:connector-curvature="0" />
    <path
       style="fill:#0055d4;stroke:#000000;stroke-width:0.5;stroke-linecap:round;stroke-linejoin:round;stroke-miterlimit:4;stroke-dasharray:none;stroke-opacity:1"
       d="m 439.32644,151.15268 c -0.11811,0 -0.75594,0.37797 -0.75594,0.37797 l 0.56695,2.10249 0.70871,1.08669 0.5906,-0.35436 -0.18899,-1.37016 -0.47247,-1.25204 z"
       id="path104"
       inkscape:connector-curvature="0" />
  </g>
  <g
     inkscape:groupmode="layer"
     id="layer16"
     inkscape:label="West Virginia"
     style="display:none"
     transform="translate(-437.2384,-130.86856)">
    <path
       style="fill:#5599ff;stroke:#000000;stroke-width:0.5;stroke-linecap:round;stroke-linejoin:round;stroke-miterlimit:4;stroke-dasharray:none;stroke-opacity:1"
       d="m 379.1101,158.85394 0.27898,3.3633 1.73725,1.13589 0.36751,1.43658 3.57473,3.94222 1.1693,0.20046 0.4009,1.13589 1.26955,1.57021 0.8686,0.0334 0.96888,0.30068 1.46997,-0.3675 1.1693,-1.20271 1.00227,0.63476 2.53904,-0.30067 0.53454,-1.33635 0.53454,-1.57021 1.10249,0.73499 1.10249,-0.53454 0.60135,-0.80181 1.30294,0.10023 0.66818,-0.63477 0.0334,-0.86862 0.30067,-0.53454 -0.46773,-1.06908 1.26955,-2.50565 1.26952,-3.20723 0.63476,-1.23613 0.16703,-1.1693 0.50115,-1.60362 0.0334,-1.83748 1.20269,-0.13363 0.66818,1.75396 1.23613,0.15033 0.83521,-0.30067 0.4009,-1.73726 0.46773,-2.83973 1.72056,0.10022 0.45101,-1.5368 1.45327,-1.00226 1.38647,-2.88985 0.25056,-3.44109 c 0,0 5.66277,2.73951 5.61266,2.67269 -0.0501,-0.0668 0.48451,-2.32191 0.48451,-2.32191 l -1.67048,-1.97111 -3.07356,-1.40316 -2.97338,1.87088 -1.50342,0.30068 -0.93543,-0.56795 -0.73499,1.46999 -1.03568,1.23612 -1.20269,-0.20045 -2.70614,3.40768 -1.10243,-6.34765 -9.19428,1.73245 -1.79728,-10.41869 -0.86863,0.40091 0.20047,0.73499 0.10023,10.12283 -4.04246,4.37654 -1.46998,0.0668 -2.65845,3.50457 1.18118,2.07887 -0.66146,0.75596 -0.80322,0.37797 -0.0472,-0.61421 -1.27569,-0.8032 -0.70869,1.65365 -0.0473,3.44903 -1.08667,0.7087 -0.18899,1.6064 -1.13393,0.56697 z"
       id="path111"
       inkscape:connector-curvature="0" />
  </g>
  <g
     inkscape:groupmode="layer"
     id="layer17"
     inkscape:label="Virginia"
     style="display:none"
     transform="translate(-437.2384,-130.86856)">
    <path
       style="fill:#00ccff;stroke:#000000;stroke-width:0.5;stroke-linecap:round;stroke-linejoin:round;stroke-miterlimit:4;stroke-dasharray:none;stroke-opacity:1"
       d="m 386.23787,168.93239 -2.02507,2.48926 -1.88989,1.55915 -1.93712,2.3151 -1.22843,1.37017 c 0,0 -0.14174,1.27567 -0.42521,1.27567 -0.28351,0 -1.74816,1.18117 -1.74816,1.18117 l -4.25222,2.45685 15.54427,-1.5119 1.22843,-1.08669 4.5357,0.37798 c 0,0 21.82812,-3.26004 22.06437,-3.26004 0.23622,0 28.58445,-6.04763 28.58445,-6.04763 l -2.03163,-4.20498 -3.96875,0.75595 0.0945,-0.42522 1.27566,-0.61421 0.0472,-1.37016 -1.51191,-1.32292 -0.14173,-0.70871 -1.37017,-0.66145 0.14173,-0.75596 c 0,0 1.98438,1.08668 1.93712,0.8977 -0.0472,-0.18899 0,-1.32292 0,-1.32292 l -0.6142,-0.85045 -0.0945,-1.41741 -0.70872,-0.51971 0.51972,-2.45685 -2.92933,-1.22842 c 0,0 -0.94493,-1.03944 -1.13392,-1.03944 -0.189,0 -2.59858,0.0472 -2.59858,0.0472 l -1.19735,-0.95962 -2.7061,-0.7684 -0.60135,-2.07134 1.43656,-1.40316 -0.0668,-1.87089 0.93543,-1.50339 -1.20271,-0.60135 -0.8018,0.93544 -1.13479,-0.87597 -2.60697,-0.39356 0.0334,-1.67043 -2.00457,-0.53456 -0.52456,2.40956 -5.5726,-2.76034 -0.25056,3.44109 -1.38647,2.88985 -1.45328,1.00226 -0.45101,1.5368 -1.72055,-0.10022 -0.86863,4.57699 -0.83521,0.30067 -1.23614,-0.15033 -0.66817,-1.75396 -1.20269,0.13363 -0.0334,1.83748 -0.50115,1.60362 -0.16703,1.1693 -0.63476,1.23613 -2.53908,5.71288 0.46773,1.06908 -0.30067,0.53454 -0.0334,0.86862 -0.66818,0.63477 -1.30294,-0.10023 -0.60135,0.80181 -1.10249,0.53454 -1.10249,-0.73499 -1.06908,2.90656 -2.53904,0.30067 -1.00227,-0.63476 -1.1693,1.20271 -1.46997,0.3675 -1.83748,-0.33408 -1.26955,-1.57021 z"
       id="path114"
       inkscape:connector-curvature="0" />
    <path
       style="fill:#2ad4ff;stroke:#000000;stroke-width:0.5;stroke-linecap:round;stroke-linejoin:round;stroke-miterlimit:4;stroke-dasharray:none;stroke-opacity:1"
       d="m 442.732,153.09667 c 0,0 0.40087,2.00452 0.23383,2.13815 -0.16705,0.13364 -1.40316,2.6727 -1.40316,2.6727 0,0 -0.26728,3.60814 -0.26728,3.74177 0,0.13364 1.00227,2.00452 1.00227,2.00452 0,0 0.7684,0.16705 0.73498,-0.0334 -0.0334,-0.20045 0.86863,-2.80633 1.06908,-2.90655 0.20045,-0.10023 0.43431,-1.5368 0.40092,-1.67044 -0.0334,-0.13363 0.16703,-3.94222 0.16703,-3.94222 l 1.13588,-1.40317 0.73504,-2.13815 z"
       id="path116"
       inkscape:connector-curvature="0" />
  </g>
  <g
     inkscape:groupmode="layer"
     id="layer18"
     inkscape:label="North Carolina"
     style="display:none"
     transform="translate(-437.2384,-130.86856)">
    <path
       style="fill:#5599ff;stroke:#000000;stroke-width:0.5;stroke-linecap:round;stroke-linejoin:round;stroke-miterlimit:4;stroke-dasharray:none;stroke-opacity:1"
       d="m 444.68899,170.05148 0.81589,1.5536 0.46773,1.16931 0.66818,1.23612 1.40317,2.27179 1.1693,1.5368 1.5368,1.80407 0.43431,2.73951 -0.20044,2.37202 -3.50793,2.50565 3.30745,-2.53906 0.16706,-3.00678 -0.60137,-2.20498 -1.26953,-1.00226 -1.40316,-0.13363 0.60137,0.60135 -0.0334,1.97112 -1.50338,0.73499 -1.00227,2.83974 c 0,0 -2.03793,0.70158 -2.17157,0.70158 -0.13364,0 -2.03793,-0.40091 -2.03793,-0.40091 l -0.96885,-1.03567 0.30067,1.57021 1.50339,0.20045 0.0668,1.20272 -0.86863,2.87315 2.10473,-0.16705 0.23387,0.90204 2.00454,-1.26953 -2.5725,4.47676 -1.67042,-0.20045 -3.8754,1.60362 -3.07361,2.37201 c 0,0 -2.00451,2.40543 -2.10474,2.53906 -0.10022,0.13364 -0.73501,2.80633 -0.73501,2.80633 l -0.43431,2.33861 -3.34087,0.40091 -2.67269,0.90203 -5.21176,-4.20949 -7.68398,-4.47677 c 0,0 -9.72603,1.17085 -9.84414,1.05273 -0.11811,-0.11812 -0.16536,-1.32292 -0.33073,-1.44103 -0.16536,-0.11812 -1.7009,-1.55916 -1.7009,-1.55916 l -12.61496,0.80321 -8.12646,3.85063 -11.38656,1.27567 0.33073,-2.88207 2.22062,-0.61421 0.18899,-2.26786 2.5041,-1.13393 2.45684,-1.22842 c 0,0 1.88987,-1.70089 2.17337,-1.70089 0.28347,0 2.22059,-1.18118 2.22059,-1.18118 l 0.2835,-1.79539 2.50407,-2.12611 0.0473,1.13393 h 1.13392 l 0.75597,-1.98438 2.12611,-0.51971 h 0.85045 l 0.56695,-1.74815 1.22843,-0.99218 c 0,0 0.56695,-0.37798 0.56695,-0.56697 0,-0.18899 0.189,-2.97656 0.189,-2.97656 l 3.16555,0.33073 22.44233,-3.30729 z"
       id="path119"
       inkscape:connector-curvature="0" />
  </g>
  <g
     inkscape:groupmode="layer"
     id="layer19"
     inkscape:label="South Carolina"
     style="display:none"
     transform="translate(-437.2384,-130.86856)">
    <path
       style="fill:#0066ff;stroke:#000000;stroke-width:0.5;stroke-linecap:round;stroke-linejoin:round;stroke-miterlimit:4;stroke-dasharray:none;stroke-opacity:1"
       d="m 425.42624,206.31671 -2.73947,2.97337 -1.26955,3.0736 -0.4009,3.80859 -0.80182,0.40091 -0.4009,1.40316 -1.73725,0.40091 -1.00227,2.07134 -1.26952,1.13589 -1.33633,2.20498 c 0,0 -0.93547,0.4009 -1.20272,0.60135 -0.26728,0.20045 -1.60361,1.46999 -1.60361,1.46999 l -1.67045,-0.0668 0.53454,1.80407 c 0,0 -2.07135,2.3386 -2.2718,2.60588 -0.20044,0.26726 -1.40316,1.00226 -1.40316,1.00226 l -1.00227,0.8018 -1.60361,-1.06907 -0.66818,-3.00679 -1.67042,-1.26953 h -1.13591 l -2.07132,-6.08038 -2.67271,-1.00226 -1.60361,-2.40543 -3.67496,-3.07359 c 0,0 -0.26726,-1.33635 -0.93544,-1.33635 -0.66817,0 -2.53907,-0.80181 -2.53907,-0.80181 l -0.93543,-1.46998 -1.13589,-1.20272 -1.87089,-3.40768 -1.53681,0.26727 c 0,0 -3.27406,-1.20272 -3.27406,-1.60362 0,-0.40091 0,-2.20497 0,-2.20497 l 1.39285,-2.00425 8.12646,-3.85063 12.61497,-0.80321 1.77178,1.6064 0.25987,1.46466 9.84412,-1.1236 7.68397,4.47677 z"
       id="path122"
       inkscape:connector-curvature="0" />
  </g>
  <g
     inkscape:groupmode="layer"
     id="layer20"
     inkscape:label="Georgia"
     style="display:none"
     transform="translate(-437.2384,-130.86856)">
    <path
       style="fill:#5599ff;stroke:#000000;stroke-width:0.5;stroke-linecap:round;stroke-linejoin:round;stroke-miterlimit:4;stroke-dasharray:none;stroke-opacity:1"
       d="m 406.85103,231.20621 0.43431,1.36973 -2.47224,3.64155 0.43432,1.40316 -1.93771,7.21628 0.20045,3.57473 -5.41221,-0.66817 -0.90202,1.00226 1.20269,2.50565 -0.40089,2.40542 -1.26953,-0.33408 -0.0334,-2.10475 -27.52876,1.63703 -1.8709,-3.20724 -0.20044,-1.60361 -1.20272,-0.93545 0.40092,-1.33635 -0.40092,-3.40768 -0.60135,-2.33861 0.66818,-3.60814 0.86863,-1.87088 -1.53681,-0.80181 0.20045,-1.60362 -1.80406,-2.33861 -4.20949,-17.17207 -1.40317,-3.74177 -1.00227,-2.00452 -0.60134,-3.67496 12.056,-1.5972 11.38656,-1.27565 -1.39285,2.00425 0.0668,2.33859 3.20722,1.47 1.53681,-0.26727 1.87089,3.40768 1.13589,1.20272 0.93543,1.46998 2.30521,0.78508 0.36751,0.0167 0.26725,0.18375 0.28398,0.4009 0.25056,0.75172 3.67496,3.07359 1.60361,2.40543 2.67271,1.00226 2.07132,6.08038 h 1.13591 l 1.67042,1.26953 0.66818,3.00679 1.60361,1.06907 z"
       id="path125"
       inkscape:connector-curvature="0" />
  </g>
  <g
     inkscape:groupmode="layer"
     id="layer21"
     inkscape:label="Florida"
     style="display:none"
     transform="translate(-437.2384,-130.86856)">
    <path
       style="fill:#0066ff;stroke:#000000;stroke-width:0.5;stroke-linecap:round;stroke-linejoin:round;stroke-miterlimit:4;stroke-dasharray:none;stroke-opacity:1"
       d="m 403.51016,248.41166 3.107,8.78649 3.7418,6.91559 2.47224,3.57474 3.70834,3.5079 0.80182,1.80409 -1.03566,1.30294 2.00451,4.54358 1.03566,0.70157 1.67045,3.67496 2.80633,4.84425 1.46997,2.30521 0.66818,4.07585 c 0,0 0.10022,4.94449 0.10022,5.14493 0,0.20048 0.16706,1.63703 0.16706,1.63703 l 0.33409,0.76841 -0.23386,1.46999 -1.13591,1.00225 -0.10023,1.20271 -0.30067,0.93544 0.26728,1.50341 0.36748,0.63476 -1.36975,1.63703 -1.46999,0.70157 -0.70157,0.4009 -1.77068,-0.10022 -0.80179,1.00226 -1.13591,0.50113 -1.36975,-0.73499 -0.40089,-2.70611 -1.36978,-2.7061 -1.9377,-1.87087 -1.30294,-0.40092 -1.60361,0.26728 -0.33409,0.4677 -1.50339,-1.87087 -0.26726,-1.70383 -0.43431,-1.20272 -1.20272,-1.77067 -0.86862,-0.50112 -0.80182,1.1693 -0.96885,-0.16706 -1.1693,-2.83972 -1.36975,-1.53681 -1.57022,-3.34086 -1.83748,-2.20499 -1.63701,-1.30294 1.33633,-1.46997 0.86863,-1.80406 0.80182,-0.96885 -0.0668,-1.03569 -2.13815,-0.53454 -1.36975,0.33409 0.10022,0.50112 1.33633,0.40093 -0.36748,1.43655 -0.0668,0.83524 -0.80179,0.53454 -1.80406,-6.24742 0.80179,-2.10476 0.20045,-5.67947 c 0,0 -1.46997,-1.70386 -1.60362,-1.90431 -0.13364,-0.20045 -0.80179,-1.77065 -0.80179,-1.77065 l -3.4077,-0.73498 -1.40316,-1.83748 -1.60362,-0.73501 -0.60134,-1.87088 -1.50342,-0.40091 -1.46997,-2.10475 -2.30521,-0.63476 -1.9377,-0.80181 c 0,0 -3.47448,0 -3.30745,0.20045 0.16703,0.20046 0.23386,1.26953 0.23386,1.26953 l 0.4009,0.56795 -0.33409,0.56795 -1.60361,-0.20045 -1.8709,1.83748 -1.9377,1.13588 -2.27179,-0.0668 -1.40317,0.60134 -0.40089,-1.67042 -1.30294,-1.23613 -1.40317,-0.33408 -2.43882,-1.40317 -2.47224,-1.13589 -3.60815,-0.93545 -4.04246,0.40091 h -1.46998 c 0,0 -3.34086,1.20271 -3.54131,1.20271 -0.20045,0 -1.77067,0.40091 -1.77067,0.40091 l -0.16703,-4.14268 c 0,0 -2.58919,-2.20498 -2.58919,-2.3052 0,-0.10023 0.43431,-1.70384 0.43431,-1.70384 l 25.74139,-2.73952 1.8709,3.20724 27.52876,-1.63703 0.0334,2.10475 1.26953,0.33408 0.40089,-2.40542 -1.20269,-2.50565 0.90202,-1.00226 z"
       id="path128"
       inkscape:connector-curvature="0" />
    <path
       style="fill:#0066ff;stroke:#000000;stroke-width:0.5;stroke-linecap:butt;stroke-linejoin:miter;stroke-miterlimit:4;stroke-dasharray:none;stroke-opacity:1"
       d="m 410.32554,319.97308 0.83521,0.63476 5.21176,-2.03792 -0.23386,-0.60137 -1.8709,-0.46771 -1.33633,1.20269 -0.4009,1.00227 z"
       id="path130"
       inkscape:connector-curvature="0" />
    <path
       style="fill:#2a7fff;stroke:#000000;stroke-width:0.5;stroke-linecap:butt;stroke-linejoin:miter;stroke-miterlimit:4;stroke-dasharray:none;stroke-opacity:1"
       d="m 418.20999,318.00196 -0.86863,-0.73498 2.40544,-1.1693 0.20044,0.53454 z"
       id="path132"
       inkscape:connector-curvature="0" />
    <path
       style="fill:#0066ff;stroke:#000000;stroke-width:0.5;stroke-linecap:butt;stroke-linejoin:miter;stroke-miterlimit:4;stroke-dasharray:none;stroke-opacity:1"
       d="m 420.68223,316.1979 -0.23387,-0.60137 c 0,0 2.08804,-1.48667 2.17157,-1.62031 0.0835,-0.13364 1.63703,-2.75622 1.63703,-2.75622 l 1.06908,-0.30067 -0.36748,1.43656 -1.15261,1.08579 -0.91874,0.56793 -1.75397,1.43658 -0.55123,0.83521 z"
       id="path134"
       inkscape:connector-curvature="0" />
    <path
       style="fill:#0066ff;stroke:#000000;stroke-width:0.5;stroke-linecap:butt;stroke-linejoin:miter;stroke-miterlimit:4;stroke-dasharray:none;stroke-opacity:1"
       d="m 424.70797,310.71052 c 0.0418,-0.0167 0.77676,-0.21717 0.78513,-0.27561 0.008,-0.0585 0.77673,-1.92937 0.77673,-1.92937 l 0.4009,-2.7228 -0.65982,1.75395 c 0,0 0.0418,1.09413 0,1.10249 -0.0418,0.008 -0.8519,1.7122 -0.8519,1.7122 z"
       id="path136"
       inkscape:connector-curvature="0" />
  </g>
  <g
     inkscape:groupmode="layer"
     id="layer22"
     inkscape:label="Alabama"
     style="display:none"
     transform="translate(-437.2384,-130.86856)">
    <path
       style="fill:#55ddff;stroke:#000000;stroke-width:0.5;stroke-linecap:round;stroke-linejoin:round;stroke-miterlimit:4;stroke-dasharray:none;stroke-opacity:1"
       d="m 343.8757,260.53902 c 0,0 -3.60818,1.40316 -3.74182,1.40316 -0.13364,0 -1.47,-0.33409 -1.47,-0.33409 l 1.77068,-1.00226 c 0,0 -1.46998,-3.74177 -1.60362,-3.77518 -0.13364,-0.0334 -1.30294,-0.16704 -1.30294,-0.16704 l -1.40316,3.67495 -2.03793,0.0334 -2.07134,-17.74001 0.40089,-36.31525 -0.60134,-1.03567 24.65562,-2.07134 0.60134,3.67496 1.00227,2.00452 1.40317,3.74177 4.20949,17.17207 1.80406,2.33861 -0.20045,1.60362 1.53681,0.80181 -0.86863,1.87088 -0.66818,3.60814 0.60135,2.33861 0.40092,3.40768 -0.40092,1.33635 1.20272,0.93545 0.2005,1.60361 -25.74139,2.73952 -0.41765,1.70384 2.57252,2.3052 z"
       id="path139"
       inkscape:connector-curvature="0" />
  </g>
  <g
     inkscape:groupmode="layer"
     id="layer23"
     inkscape:label="Tennessee"
     style="display:none"
     transform="translate(-437.2384,-130.86856)">
    <path
       style="fill:#80e5ff;stroke:#000000;stroke-width:0.5;stroke-linecap:round;stroke-linejoin:round;stroke-miterlimit:4;stroke-dasharray:none;stroke-opacity:1"
       d="m 331.81512,205.28103 -12.06053,0.86864 -8.11832,0.60135 0.0668,-0.70158 1.1693,-0.50113 0.43431,-2.13816 -0.53453,-2.07133 1.10249,-0.80181 0.70157,-0.33409 1.26955,-4.51017 1.1693,-2.97338 0.36748,-2.07134 c 0,0 -0.16703,-2.27179 -0.0334,-2.27179 0.13364,0 14.23209,-0.66817 14.23209,-0.66817 l -0.0668,-2.03793 c 0,0 3.80857,-0.23386 4.00904,-0.23386 0.20045,0 19.57747,-1.87089 19.57747,-1.87089 l 17.63081,-1.98563 15.54427,-1.5119 1.22843,-1.08669 1.37017,0.0473 -0.17719,3.03562 c 0,0 -1.80718,1.50009 -1.80718,1.50009 l -0.56695,1.74815 h -0.85045 l -2.12611,0.51971 -0.75597,1.98438 h -1.13393 l -0.0473,-1.13393 -2.50407,2.12611 -0.28351,1.79539 -2.06811,1.17999 -0.27059,0.0248 -2.05526,1.67727 -4.96093,2.36234 -0.189,2.26786 -2.22062,0.61422 -0.33073,2.88207 -12.056,1.59718 z"
       id="path142"
       inkscape:connector-curvature="0" />
  </g>
  <g
     inkscape:groupmode="layer"
     id="layer24"
     inkscape:label="Kentucky"
     style="display:none"
     transform="translate(-437.2384,-130.86856)">
    <path
       style="fill:#55ddff;stroke:#000000;stroke-width:0.5;stroke-linecap:round;stroke-linejoin:round;stroke-miterlimit:4;stroke-dasharray:none;stroke-opacity:1"
       d="m 317.28232,188.40965 0.50115,-0.46772 1.1693,-0.66817 0.43431,-0.56795 1.20272,-0.7684 0.26726,-1.5368 0.50114,-1.20271 -0.93546,-1.33635 0.33409,-0.93544 2.20499,-1.23612 2.3386,0.83521 1.26952,0.50113 0.66818,-0.13363 -0.0668,-1.36976 -0.46773,-0.93544 v -1.40317 l 1.1693,-0.90203 2.2384,-0.53454 c 0,0 -0.46773,-1.10249 -0.60137,-1.1359 -0.13364,-0.0334 -0.10022,-1.00226 -0.10022,-1.00226 l 0.60137,-0.33409 0.34007,-1.66491 2.03163,-1.08668 4.34673,-1.03944 1.84264,1.88988 0.33073,-1.32292 2.07885,-1.46465 0.99219,0.37797 0.6142,1.51191 1.22844,-0.28348 0.0473,-2.26786 2.22056,-1.55915 0.28351,1.5119 2.7863,-0.0482 0.23749,-2.55036 3.87426,-3.77976 0.33073,-2.59859 2.27267,-0.22527 2.87729,-1.75911 -0.0945,-1.18117 -0.6142,-0.8977 v -0.99218 l 3.49628,-0.33073 1.32292,0.42522 0.99218,2.64583 3.21279,-0.0472 0.99218,1.03943 1.13393,0.0945 1.13395,-0.8032 1.74813,0.0472 0.51972,0.8977 1.88986,-1.32292 1.65365,-0.85045 0.2835,1.46466 c 0,0 2.69306,1.74814 2.69306,1.74814 0,0 0.27898,3.3633 0.27898,3.3633 l 1.73725,1.13589 0.36751,1.43658 3.57473,3.94222 1.1693,0.20046 -2.02507,2.48926 -1.88989,1.55915 -3.16555,3.68527 -0.25985,1.2048 -0.18899,0.0709 -0.40161,0.18899 -1.32292,0.99218 -4.25222,2.45685 -12.99292,1.46466 -12.72278,1.28937 -11.70975,1.11919 -3.7919,0.21716 0.0668,2.03793 z"
       id="path145"
       inkscape:connector-curvature="0" />
  </g>
  <g
     inkscape:groupmode="layer"
     id="layer25"
     inkscape:label="Wisconsin"
     style="display:none"
     transform="translate(-437.2384,-130.86856)">
    <path
       style="fill:#aaffaa;stroke:#000000;stroke-width:0.5;stroke-linecap:round;stroke-linejoin:round;stroke-miterlimit:4;stroke-dasharray:none;stroke-opacity:1"
       d="m 302.61718,69.32083 -0.46897,0.688422 -0.63479,0.03341 c 0,0 -0.10022,-1.035669 -0.4009,-1.035669 -0.30067,0 -1.90428,-0.367496 -1.90428,-0.367496 0,0 -0.93546,0.734991 -1.06908,0.701582 -0.13364,-0.03341 -0.50114,-0.434311 -0.50114,-0.434311 l 2.20498,-3.140418 -1.13591,-0.835216 -3.90879,2.00452 -3.4077,1.302938 -2.40544,0.03341 -0.4677,-0.434311 -1.33636,1.403165 -0.26725,6.514693 -3.30748,2.438836 -1.13588,3.374276 c 0,0 1.33633,1.135896 1.33633,1.336347 0,0.200454 0.43431,1.403168 0.43431,1.403168 l -0.83521,2.138156 0.60137,5.245163 1.40317,1.737252 1.53678,-0.06682 1.06907,1.837478 2.00454,0.06682 2.20496,3.541321 3.34086,1.603614 1.30294,1.97111 0.43432,4.24291 0.3675,1.40316 1.1693,0.7684 0.13364,0.60136 -1.06907,2.07134 0.16703,1.70384 1.1693,1.83748 1.73725,0.83522 1.60364,0.16704 0.4009,1.50339 20.67997,-1.1693 3.80859,-0.40091 0.4009,-2.00452 -1.26952,-2.80633 -0.33409,-3.87541 -0.46771,-0.73499 1.13589,-3.4745 0.60134,-0.80181 -0.86863,-4.944486 1.80409,-2.204971 -0.60137,-1.870887 1.00227,-3.207234 2.73952,-6.548104 -0.53454,-1.336347 -3.74179,5.81311 -1.67042,1.336349 -0.0668,1.00226 -0.8018,0.668174 -0.33408,0.734991 c 0,0 -0.93544,0 -1.00227,-0.334086 -0.0668,-0.334087 -0.20045,-1.336347 -0.20045,-1.336347 l 1.5368,-2.33861 0.66818,-1.469983 1.15121,-1.536353 -1.32292,-1.181174 -0.94493,-5.622396 -2.59861,-0.803201 -0.14174,-1.039434 -7.08705,-1.559155 -0.47246,-0.472467 -9.68566,-2.078868 z"
       id="path150"
       inkscape:connector-curvature="0" />
  </g>
  <g
     inkscape:groupmode="layer"
     id="layer26"
     inkscape:label="Illinois"
     style="display:none"
     transform="translate(-437.2384,-130.86856)">
    <path
       style="fill:#aaffcc;stroke:#000000;stroke-width:0.5;stroke-linecap:round;stroke-linejoin:round;stroke-miterlimit:4;stroke-dasharray:none;stroke-opacity:1"
       d="m 327.47198,115.9462 0.10023,3.04019 1.60361,1.93771 1.83676,3.81745 2.17337,29.00967 -0.47247,1.88988 1.22844,1.74814 0.17841,3.72551 -2.02105,4.1175 -1.27569,1.41741 -0.47246,4.96094 -0.34007,1.66491 -0.60137,0.33409 0.0334,0.93545 0.66818,1.20271 -2.2384,0.53454 -1.1693,0.90203 v 1.40317 l 0.46773,0.93544 0.0668,1.36976 -0.66818,0.13363 -3.60812,-1.33634 -2.20499,1.23612 -0.33409,0.93544 -1.40316,0.53454 -1.83748,-3.30746 0.63476,-1.63703 -1.5702,-1.9377 -0.63476,-2.43884 -3.00677,-0.50113 -2.97339,-2.43883 -1.40317,-2.60588 1.26953,-3.60814 0.7684,-2.80633 -0.56793,-0.80181 -4.40997,-0.46772 -0.50112,-0.83522 0.20045,-2.20497 -3.27403,-2.33861 -1.33636,-1.57021 -2.40543,-2.47224 -1.36975,-6.08038 1.06907,-1.20271 0.43432,-0.66818 0.0334,-1.80407 1.73726,-0.63476 v -1.9377 l 1.40316,-1.40317 0.20045,-2.47224 -1.10249,-0.83522 0.43431,-2.57247 3.0402,-0.7684 2.43882,-1.5368 0.0334,-1.80407 0.73498,-0.93544 0.13364,-1.23613 0.4009,-1.03566 -0.46773,-1.73726 -2.17154,-1.23612 -0.0668,-1.26953 -1.93771,-0.73499 0.0334,-1.00226 20.71338,-1.1693 z"
       id="path153"
       inkscape:connector-curvature="0" />
  </g>
  <g
     inkscape:groupmode="layer"
     id="layer27"
     inkscape:label="Mississippi"
     style="display:none"
     transform="translate(-437.2384,-130.86856)">
    <path
       style="fill:#aaffcc;stroke:#000000;stroke-width:0.5;stroke-linecap:round;stroke-linejoin:round;stroke-miterlimit:4;stroke-dasharray:none;stroke-opacity:1"
       d="m 311.63627,206.75102 0.35944,1.33432 -0.85045,0.54334 -1.01579,0.30711 -1.41742,2.83482 0.37798,2.17336 -1.25206,0.4016 -1.79538,2.64583 0.0472,1.77177 -1.74813,1.25204 -0.44886,4.18136 0.61423,0.8032 -0.68509,0.99219 0.70869,2.008 -0.0472,2.48047 -0.44887,1.44103 0.0473,2.76395 0.75597,0.92132 0.23622,1.93713 1.32291,1.27567 -0.14174,1.25204 -0.6142,0.25986 0.18899,1.48828 -4.63021,7.67764 -0.11813,5.29167 14.50485,-0.3071 4.08686,-0.4016 0.3071,0.59058 -0.77956,3.75614 1.91349,2.17337 1.20481,3.23642 0.9213,-0.77958 0.96856,-2.05524 1.13395,0.44884 4.11049,-1.03943 1.32593,0.62873 2.57249,0.0668 0.73499,-0.735 -2.07134,-17.74001 0.40089,-36.31525 -0.60134,-1.03567 z"
       id="path156"
       inkscape:connector-curvature="0" />
  </g>
  <g
     inkscape:groupmode="layer"
     id="layer28"
     inkscape:label="Louisiana"
     style="display:none"
     transform="translate(-437.2384,-130.86856)">
    <path
       style="fill:#66ff00;stroke:#000000;stroke-width:0.5;stroke-linecap:round;stroke-linejoin:round;stroke-miterlimit:4;stroke-dasharray:none;stroke-opacity:1"
       d="m 322.31922,263.83683 -2.45687,2.03161 0.33073,1.13395 1.51191,0.18896 0.61421,-1.46465 1.5119,-1.03942 0.28348,1.46466 0.70871,1.32292 -0.61423,1.13392 -1.79538,0.0945 0.0473,0.56698 0.66146,0.42521 -0.28347,0.2835 -0.56698,-0.2835 -0.75594,1.46465 1.60639,1.27569 3.02382,0.42521 1.4174,1.27567 1.32291,0.18899 -0.56694,1.41742 -0.94496,1.08667 -0.56695,-0.51972 h -1.18118 l -1.27566,-1.2284 -4.29948,-0.99219 0.14173,-1.41743 -0.33073,-0.6142 -0.61423,0.75594 -1.2284,0.14176 0.14173,0.85043 -0.42521,0.75597 1.27566,0.14173 -1.98437,2.36236 -0.99219,0.42521 -0.85045,0.56698 -0.28347,-0.99219 1.27566,-0.0945 -0.14174,-0.94493 -0.18899,-0.70871 -0.85045,-0.51972 -0.85045,0.85045 -1.55914,0.18899 -0.23624,1.13392 -1.74813,1.0867 -4.72472,-1.98438 -0.66146,-0.75596 0.70872,-0.94494 0.18899,-0.6142 -0.99219,-0.94496 -2.64583,0.2835 0.0945,-1.18118 -0.75594,-1.7009 -1.79539,-0.28347 -1.03944,0.66146 -1.08667,-0.85046 -1.41742,0.42522 -0.47247,0.80322 1.32292,0.99219 1.51191,-0.42524 1.79538,0.56697 -0.37799,1.27567 -2.9293,-1.32292 -2.31511,0.80319 -4.15774,-0.56694 -5.29167,-1.79541 -3.82701,-0.0945 -2.69306,0.85045 -0.14176,-1.88989 0.70871,-1.93712 0.37798,-3.96875 0.37799,-0.85045 -0.89771,-1.13392 1.51191,-2.74033 0.51972,-4.53572 -0.66146,-0.85044 0.0945,-1.22842 -2.5041,-3.2128 0.0473,-1.84264 -2.26784,-3.40178 -0.14174,-11.81176 28.13846,-0.46901 -0.16827,0.53988 0.0473,2.76395 0.75597,0.92132 0.23622,1.93713 1.32292,1.27567 -0.14177,1.25204 -0.61417,0.25986 0.18899,1.48828 -4.63024,7.67764 -0.11811,5.29167 14.50483,-0.3071 4.08686,-0.4016 0.3071,0.59058 -0.77954,3.75614 1.9135,2.17337 z"
       id="path159"
       inkscape:connector-curvature="0" />
  </g>
  <g
     inkscape:groupmode="layer"
     id="layer29"
     inkscape:label="Arkansas"
     style="display:none"
     transform="translate(-437.2384,-130.86856)">
    <path
       style="fill:#80ff80;stroke:#000000;stroke-width:0.5;stroke-linecap:round;stroke-linejoin:round;stroke-miterlimit:4;stroke-dasharray:none;stroke-opacity:1"
       d="m 276.0645,231.85061 -0.47262,-6.52011 -3.07105,0.56697 -1.27566,-1.65365 -0.0945,-21.02492 -0.51972,-4.72471 -0.0945,-4.11049 -0.85045,-4.20498 27.78125,-0.42523 14.31587,-0.51971 0.85042,1.84263 -0.70869,1.37016 -1.32291,1.08668 -0.42524,1.37017 3.1183,0.37798 2.84665,-0.31892 -0.29588,0.73027 -1.26955,4.51017 -0.70157,0.33409 -1.10249,0.80181 0.53451,2.07133 -0.43432,2.13816 -1.1693,0.50113 -0.0668,0.70158 0.35944,1.33432 -0.85045,0.54334 -1.01579,0.30711 -1.41742,2.83482 0.37798,2.17336 -1.25206,0.4016 -1.79538,2.64583 0.0472,1.77177 -1.74813,1.25204 -0.44887,4.18136 0.61423,0.8032 -0.68508,0.99219 0.70868,2.008 -0.0472,2.48047 -0.28046,0.90117 z"
       id="path162"
       inkscape:connector-curvature="0" />
  </g>
  <g
     inkscape:groupmode="layer"
     id="layer30"
     inkscape:label="Missouri"
     style="display:none"
     transform="translate(-437.2384,-130.86856)">
    <path
       style="fill:#7fff2a;stroke:#000000;stroke-width:0.5;stroke-linecap:round;stroke-linejoin:round;stroke-miterlimit:4;stroke-dasharray:none;stroke-opacity:1"
       d="m 297.67141,143.14088 -2.49563,-1.60297 -0.42521,-1.2048 -10.08724,0.8032 -25.51341,0.66146 0.56697,1.65364 -0.0472,1.13393 2.78758,3.73252 1.84263,2.07886 1.98438,0.18899 -0.2835,1.93713 -0.6142,0.70871 -0.28348,1.84263 2.03163,2.74033 1.60639,1.08668 0.66146,5.90588 -0.37798,21.07217 0.66145,4.29948 20.26801,-0.29909 21.82911,-0.64585 0.85042,1.84263 -0.70869,1.37016 -1.32291,1.08668 -0.42524,1.37017 3.1183,0.37798 2.84665,-0.31892 0.87342,-2.24311 0.36748,-2.07134 -0.10023,-2.23838 0.50115,-0.46772 1.1693,-0.66817 0.43431,-0.56795 1.20272,-0.7684 0.26726,-1.5368 0.50114,-1.20271 -0.93548,-1.33635 -1.40317,0.53454 -1.83748,-3.30746 0.63476,-1.63703 -1.57019,-1.9377 -0.63476,-2.43884 -3.00678,-0.50113 -2.97339,-2.43883 -1.40316,-2.60588 1.26952,-3.60814 0.7684,-2.80633 -0.56793,-0.80181 -4.40996,-0.46772 -0.50113,-0.83522 0.20045,-2.20497 -3.27403,-2.33861 -1.33636,-1.57021 -2.40543,-2.47224 -1.36975,-6.08038 z"
       id="path165"
       inkscape:connector-curvature="0" />
  </g>
  <g
     inkscape:groupmode="layer"
     id="layer31"
     inkscape:label="Iowa"
     style="display:none"
     transform="translate(-437.2384,-130.86856)">
    <path
       style="fill:#99ff55;stroke:#000000;stroke-width:0.5;stroke-linecap:round;stroke-linejoin:round;stroke-miterlimit:4;stroke-dasharray:none;stroke-opacity:1"
       d="m 297.27826,106.10264 -17.98161,0.55595 -27.59558,0.20045 -0.33408,1.9377 0.46772,1.5368 0.86862,0.20045 -0.33408,2.6727 -1.00226,3.14042 1.33634,2.27179 0.53455,2.80633 1.67043,4.54358 0.53454,2.47224 1.20271,2.00452 0.13364,2.80633 1.40316,2.40543 -0.0668,3.60814 1.03438,2.5323 25.49213,-0.69482 10.10852,-0.76984 0.42521,1.2048 2.49563,1.60297 0.43431,-0.66818 0.0334,-1.80407 1.73725,-0.63476 v -1.9377 l 1.40317,-1.40317 0.20044,-2.47224 -1.10249,-0.83522 0.43432,-2.57247 3.04019,-0.7684 2.43882,-1.5368 0.0334,-1.80407 0.73499,-0.93544 0.13364,-1.23613 0.4009,-1.03566 -0.46773,-1.73726 -2.17154,-1.23612 -0.0668,-1.26953 -1.9377,-0.73499 0.0334,-1.00226 -0.4009,-1.50339 -1.60364,-0.16704 -1.73725,-0.83522 -1.1693,-1.83748 -0.16703,-1.70384 1.06907,-2.07134 -0.13364,-0.60136 -1.1693,-0.7684 -0.3675,-1.40316 z"
       id="path168"
       inkscape:connector-curvature="0" />
  </g>
  <g
     inkscape:groupmode="layer"
     id="layer32"
     inkscape:label="Minnesota"
     style="display:none"
     transform="translate(-437.2384,-130.86856)">
    <path
       style="fill:#ccffaa;stroke:#000000;stroke-width:0.5;stroke-linecap:round;stroke-linejoin:round;stroke-miterlimit:4;stroke-dasharray:none;stroke-opacity:1"
       d="m 252.83697,106.89245 0.10023,-21.648834 -1.77066,-0.935442 -1.5368,-2.505652 2.13815,-1.703845 v -6.61492 l -1.13589,-3.975634 -1.1359,-12.428032 -1.73725,-4.510175 -0.16704,-6.013563 0.36749,-1.236123 -1.00226,-3.107007 16.63753,0.133635 -0.0668,-4.576992 2.00453,0.902036 1.33634,6.013563 0.66817,0.968852 h 2.77292 l 0.10022,1.102487 h 3.20725 l 0.23387,1.135896 3.17381,-0.23386 0.4009,-1.002261 1.23613,-0.634767 0.60134,0.768401 1.90432,-0.133634 3.1738,2.171565 2.87317,0.768398 0.73498,-0.567947 0.4009,1.536801 1.70386,0.534538 0.43429,-0.300678 0.26728,1.202714 1.80407,0.601355 1.60361,-0.100227 2.50566,-2.271789 1.00226,-0.100227 0.70157,1.837479 0.60137,-0.03341 0.70157,-0.734992 4.67723,0.03341 0.53454,1.703843 0.60137,0.03341 0.80179,-0.935442 h 2.10476 l -0.60137,0.935442 -1.40317,0.868627 -6.04697,2.405425 -2.20496,1.269529 -1.50339,1.135896 -1.73725,2.77292 -0.63476,1.135896 -1.03569,0.534541 -2.37201,2.739511 -0.73499,0.06682 -1.80406,1.419868 0.20045,0.517837 -1.33636,1.403165 -0.26725,6.514695 -3.30748,2.438834 -1.13588,3.374276 1.35305,1.269532 0.41759,1.469983 -0.83521,2.138156 0.60137,5.245163 1.40317,1.737252 1.53678,-0.06682 1.06907,1.837476 2.00454,0.06682 2.20496,3.541321 3.34086,1.603615 1.30294,1.97111 0.40865,3.72037 -19.21772,0.55595 z"
       id="path171"
       inkscape:connector-curvature="0" />
  </g>
  <g
     inkscape:groupmode="layer"
     id="layer33"
     inkscape:label="North Dakota"
     style="display:none"
     transform="translate(-437.2384,-130.86856)">
    <path
       style="fill:#f6ffd5;stroke:#000000;stroke-width:0.5;stroke-linecap:round;stroke-linejoin:round;stroke-miterlimit:4;stroke-dasharray:none;stroke-opacity:1"
       d="m 246.95704,42.213223 -19.32088,-0.201171 -20.97,-1.034952 -12.96257,-1.00226 -3.20724,35.7473 37.15047,1.937703 24.12107,0.801809 v -4.977897 l -1.13589,-3.975632 -1.1359,-12.428032 -1.73725,-4.510175 -0.16704,-6.013563 0.36749,-1.236123 z"
       id="path174"
       inkscape:connector-curvature="0" />
  </g>
  <g
     inkscape:groupmode="layer"
     id="layer34"
     inkscape:label="South Dakota"
     style="display:none"
     transform="translate(-437.2384,-130.86856)">
    <path
       style="fill:#e5ff80;stroke:#000000;stroke-width:0.5;stroke-linecap:round;stroke-linejoin:round;stroke-miterlimit:4;stroke-dasharray:none;stroke-opacity:1"
       d="m 190.49635,75.722138 -2.93996,34.544582 40.62497,2.2718 h 6.81537 l 4.34313,3.14041 2.40543,-0.80181 3.40768,-0.4009 1.26953,0.80181 3.82136,1.71505 0.94494,2.05524 1.51453,-0.42942 -1.33634,-2.27179 1.00226,-3.14042 0.33408,-2.6727 -0.86862,-0.20045 -0.46772,-1.5368 0.33408,-1.9377 1.1359,0.0334 0.10023,-21.648834 -1.77066,-0.935442 -1.5368,-2.505652 2.13815,-1.703845 v -1.637025 l -25.02942,-0.87259 z"
       id="path177"
       inkscape:connector-curvature="0" />
  </g>
  <g
     inkscape:groupmode="layer"
     id="layer35"
     inkscape:label="Nebraska"
     style="display:none"
     transform="translate(-437.2384,-130.86856)">
    <path
       style="fill:#d4ff2a;stroke:#000000;stroke-width:0.5;stroke-linecap:round;stroke-linejoin:round;stroke-miterlimit:4;stroke-dasharray:none;stroke-opacity:1"
       d="m 187.55639,110.26672 40.60826,2.28015 6.83208,-0.008 4.34313,3.14041 2.40543,-0.80181 3.40768,-0.4009 1.26953,0.80181 3.82136,1.71505 0.94494,2.05524 1.51453,-0.42942 0.53455,2.80633 1.67043,4.54358 0.53454,2.47224 1.20271,2.00452 0.13364,2.80633 1.40316,2.40543 -0.0668,3.60814 1.60133,4.18594 -0.0472,1.13393 2.78758,3.73252 0.45242,0.51085 -23.17829,-0.32186 -20.83594,-0.61422 -16.58371,-0.80319 0.85045,-11.71727 -17.85938,-1.55915 z"
       id="path180"
       inkscape:connector-curvature="0" />
  </g>
  <g
     inkscape:groupmode="layer"
     id="layer36"
     inkscape:label="Kansas"
     style="display:none"
     transform="translate(-437.2384,-130.86856)">
    <path
       style="fill:#e5ff80;stroke:#000000;stroke-width:0.5;stroke-linecap:round;stroke-linejoin:round;stroke-miterlimit:4;stroke-dasharray:none;stroke-opacity:1"
       d="m 269.0718,184.32009 -7.41779,0.37797 -29.19866,-0.23623 -32.27048,-1.76506 2.12688,-35.60698 16.51517,0.79512 23.72017,0.73499 14.76664,0.0668 5.59596,0.14234 1.39021,1.56766 1.98438,0.18899 -0.2835,1.93713 -0.6142,0.70871 -0.28348,1.84263 2.03163,2.74033 1.60639,1.08668 0.66146,5.90588 z"
       id="path183"
       inkscape:connector-curvature="0" />
  </g>
  <g
     inkscape:groupmode="layer"
     id="layer37"
     inkscape:label="Oklahoma"
     style="display:none"
     transform="translate(-437.2384,-130.86856)">
    <path
       style="fill:#ffe680;stroke:#000000;stroke-width:0.5;stroke-linecap:round;stroke-linejoin:round;stroke-miterlimit:4;stroke-dasharray:none;stroke-opacity:1"
       d="m 200.18487,182.69677 -8.88167,-0.5028 -0.47247,6.28385 17.62314,0.80321 10.81956,0.33072 -1.03943,23.0093 2.50409,2.64584 1.08668,0.14174 0.70871,-1.46466 0.51972,1.22842 0.99219,0.0945 0.28348,-1.13393 1.5119,1.41741 -0.28348,2.07887 2.12294,-0.15403 1.90429,0.90204 h 1.43658 l 1.36975,0.93544 1.67044,-1.13589 1.9377,0.90203 1.43657,1.60362 0.0668,1.40316 1.03567,0.20046 1.5368,-1.30295 0.93544,0.50114 1.30294,-0.13364 0.50113,1.30294 2.77292,0.93544 1.60362,-2.63928 0.63477,0.16704 0.20045,0.86863 5.64607,1.83748 1.30294,-0.53454 0.30067,-1.40317 2.33861,-0.10023 1.10249,0.63477 1.83748,-1.33635 0.7684,1.26953 2.00452,-0.0668 0.66817,-1.5034 1.36976,0.50114 0.83521,1.50338 4.07588,1.80407 1.57019,0.43432 -0.60134,-0.78176 -0.0945,-21.02492 -0.51972,-4.72471 -0.0945,-4.11049 -0.85045,-4.20498 -0.6614,-4.29948 0.0472,-1.55915 -7.39823,0.3812 -29.1992,-0.24222 z"
       id="path186"
       inkscape:connector-curvature="0" />
  </g>
  <g
     inkscape:groupmode="layer"
     id="layer38"
     inkscape:label="Texas"
     style="display:none"
     transform="translate(-437.2384,-130.86856)">
    <path
       style="fill:#ffdd55;stroke:#000000;stroke-width:0.5;stroke-linecap:round;stroke-linejoin:round;stroke-miterlimit:4;stroke-dasharray:none;stroke-opacity:1"
       d="m 279.04098,271.25461 -4.65389,1.63002 -4.46484,1.98438 -0.35436,1.4174 -3.47265,2.03163 -4.32311,3.89789 -9.00056,4.72469 -4.15773,2.78757 -1.7009,0.42524 -2.22061,3.07105 -2.17336,0.0472 -0.42522,0.70869 0.99218,1.18118 -2.40959,10.11086 1.6064,4.77195 0.0945,2.74034 0.89769,2.5041 -1.41741,0.99218 -3.21279,-1.84263 -3.3073,-0.70872 -0.42522,0.42522 -1.84263,-0.18897 -1.98166,-1.8773 -6.48128,-2.17157 -1.83748,-2.87316 -0.23386,-2.87314 -2.00452,-1.40316 0.43431,-3.27406 -1.03567,-0.50112 0.80181,-2.23838 -1.1359,-1.70386 -1.9377,-0.56793 -3.54132,-5.87994 -2.10475,-1.30294 0.13363,-1.1693 -2.90655,-6.41448 -0.43431,-2.23837 -1.1359,-1.1025 0.0334,-0.93543 -4.57699,-4.24291 0.10022,-0.80179 -1.60361,-1.13591 -7.45014,-1.00225 -2.03793,-1.36977 -4.44336,1.83748 -1.33634,1.70384 -0.56795,2.07134 -3.40769,4.51019 -4.87767,-2.27179 -1.00226,-1.50341 -3.00678,-1.33634 -2.60588,-2.63929 -1.36975,-1.40317 -1.1359,-2.63927 0.16704,-4.00905 -1.87088,-3.70836 -0.20045,-1.43658 -1.1359,-0.66817 -0.3675,-1.10249 -2.90655,-1.43657 -4.355,-4.84595 -0.51971,-1.74814 -2.36236,-1.03943 -0.89769,-2.22061 -1.65364,-1.93713 -1.41742,-0.18899 -0.0472,-2.4096 35.6715,2.92932 3.93332,-52.9521 0.41341,0.0354 16.2766,0.73233 12.1661,0.4016 -1.03943,23.0093 2.50409,2.64584 1.08668,0.14174 0.70871,-1.46466 0.51972,1.22842 0.99219,0.0945 0.28348,-1.13393 1.5119,1.41741 -0.28348,2.07887 2.12294,-0.15403 1.90429,0.90204 h 1.43658 l 1.36975,0.93544 1.67044,-1.13589 1.9377,0.90203 1.43657,1.60362 0.0668,1.40316 1.03567,0.20046 1.5368,-1.30295 0.93544,0.50114 1.30294,-0.13364 0.50113,1.30294 2.77292,0.93544 1.60362,-2.63928 0.63477,0.16704 0.20045,0.86863 5.64607,1.83748 1.30294,-0.53454 0.30067,-1.40317 2.33861,-0.10023 1.10249,0.63477 1.83748,-1.33635 0.7684,1.26953 2.00452,-0.0668 0.66817,-1.5034 1.36975,0.50114 0.83521,1.50338 4.07588,1.80407 1.5702,0.43432 0.67434,0.87188 3.07105,-0.56697 0.47262,6.52011 0.14174,11.81176 2.26785,3.40178 -0.0473,1.84264 2.5041,3.2128 -0.0945,1.22842 0.66145,0.85044 -0.51972,4.53572 -1.5119,2.74033 0.89773,1.13392 -0.37801,0.85045 -0.37796,3.96876 -0.70871,1.93712 z"
       id="path189"
       inkscape:connector-curvature="0" />
  </g>
  <g
     inkscape:groupmode="layer"
     id="layer39"
     inkscape:label="New Mexico"
     style="display:none"
     transform="translate(-437.2384,-130.86856)">
    <path
       style="fill:#ff9955;stroke:#000000;stroke-width:0.5;stroke-linecap:round;stroke-linejoin:round;stroke-miterlimit:4;stroke-dasharray:none;stroke-opacity:1"
       d="m 150.85974,240.87472 -16.30022,-2.50404 -0.7087,5.5279 -8.22098,-1.03943 9.59114,-66.90179 38.77148,4.93534 17.31074,1.30127 -0.47247,6.28385 -0.41337,-0.0355 -3.93332,52.9521 -35.6715,-2.92932 z"
       id="path192"
       inkscape:connector-curvature="0" />
  </g>
  <g
     inkscape:groupmode="layer"
     id="layer40"
     inkscape:label="Colorado"
     style="display:none"
     transform="translate(-437.2384,-130.86856)">
    <path
       style="fill:#ffcc00;stroke:#000000;stroke-width:0.5;stroke-linecap:round;stroke-linejoin:round;stroke-miterlimit:4;stroke-dasharray:none;stroke-opacity:1"
       d="m 185.30282,133.81337 -25.27519,-2.43235 -18.64205,-2.13816 -6.1646,46.7145 38.82995,4.94369 17.25227,1.29292 8.88167,0.5028 2.12688,-35.60698 0.85045,-11.71727 z"
       id="path195"
       inkscape:connector-curvature="0" />
  </g>
  <g
     inkscape:groupmode="layer"
     id="layer41"
     inkscape:label="Wyoming"
     style="display:none"
     transform="translate(-437.2384,-130.86856)">
    <path
       style="fill:#ffdd55;stroke:#000000;stroke-width:0.5;stroke-linecap:round;stroke-linejoin:round;stroke-miterlimit:4;stroke-dasharray:none;stroke-opacity:1"
       d="m 141.38558,129.24286 -17.57297,-2.67269 7.75081,-47.440344 32.74052,4.744034 25.25697,2.80633 -2.00452,23.58653 -2.25357,23.54665 z"
       id="path198"
       inkscape:connector-curvature="0" />
  </g>
  <g
     inkscape:groupmode="layer"
     id="layer42"
     inkscape:label="Montana"
     style="display:none"
     transform="translate(-437.2384,-130.86856)">
    <path
       style="fill:#ffd42a;stroke:#000000;stroke-width:0.5;stroke-linecap:round;stroke-linejoin:round;stroke-miterlimit:4;stroke-dasharray:none;stroke-opacity:1"
       d="m 193.70359,39.97484 -37.35092,-4.142677 -33.0746,-5.34539 -22.97264,-4.727697 -2.362351,11.339285 1.842635,3.921503 -0.661459,2.456847 0.992185,2.315104 1.88988,0.803199 1.7009,5.622395 2.03162,1.889882 0.42522,0.992187 1.74814,0.14174 0.23624,1.039435 -3.96875,9.921874 0.0945,1.46466 1.55915,1.41741 2.74033,-1.700893 0.42522,-0.850447 1.03944,0.566965 -0.47247,1.08668 1.79538,9.07143 1.13393,0.377976 1.65365,1.889882 -0.0472,2.409597 0.28348,1.370164 0.75596,0.8032 1.13393,-1.464659 1.84263,0.283483 1.27567,0.755951 1.22842,-0.755951 2.69308,-0.04725 1.70089,0.708705 1.55916,-0.09449 0.14174,-1.700893 1.74814,-0.283482 0.66146,1.55915 0.14174,1.039436 1.18117,1.228421 1.11439,-6.207746 32.87415,4.760737 25.12334,2.789627 0.93544,-10.958052 z"
       id="path201"
       inkscape:connector-curvature="0" />
  </g>
  <g
     inkscape:groupmode="layer"
     id="layer43"
     inkscape:label="Idaho"
     style="display:none"
     transform="translate(-437.2384,-130.86856)">
    <path
       style="fill:#ff7f2a;stroke:#000000;stroke-width:0.5;stroke-linecap:round;stroke-linejoin:round;stroke-miterlimit:4;stroke-dasharray:none;stroke-opacity:1"
       d="m 100.30543,25.759076 -7.395861,-1.75359 -6.815373,30.034413 -0.133636,2.104747 -0.133633,2.305201 1.069078,2.605876 1.403165,0.935445 0.06682,2.204974 -2.973375,3.708363 -0.935444,1.369756 -0.935443,0.968853 0.133636,1.369756 -1.236123,1.135896 -0.868624,0.03341 -2.204974,3.073598 -0.133636,1.670434 -0.367496,0.634767 0.334087,0.400905 1.670436,-0.03341 0.701583,1.336347 -0.7684,1.169305 -6.113791,23.720168 25.778744,5.43522 25.37165,4.44122 4.74234,-29.161607 -0.11207,-0.131551 -1.18117,-1.228423 -0.14174,-1.039434 -0.66146,-1.55915 -1.74814,0.28348 -0.14174,1.700895 -1.55916,0.09449 -1.70089,-0.708705 -2.69308,0.04725 -1.22842,0.755949 -1.27567,-0.755949 -1.84263,-0.283483 -1.13393,1.464657 -0.75596,-0.803198 -0.28348,-1.370164 0.0472,-2.409597 -1.65365,-1.889882 -1.13393,-0.377978 -1.79538,-9.071428 0.47247,-1.08668 -1.03944,-0.566965 -0.42522,0.850447 -2.74033,1.700893 -1.55915,-1.41741 -0.0945,-1.46466 3.96875,-9.921874 -0.23624,-1.039435 -1.74814,-0.14174 -0.42522,-0.992187 -2.03162,-1.889882 -1.7009,-5.622395 -1.88988,-0.803199 -0.992185,-2.315104 0.661461,-2.456847 -1.842635,-3.921503 z"
       id="path204"
       inkscape:connector-curvature="0" />
  </g>
  <g
     inkscape:groupmode="layer"
     id="layer44"
     inkscape:label="Utah"
     style="display:none"
     transform="translate(-437.2384,-130.86856)">
    <path
       style="fill:#ff9955;stroke:#000000;stroke-width:0.5;stroke-linecap:round;stroke-linejoin:round;stroke-miterlimit:4;stroke-dasharray:none;stroke-opacity:1"
       d="m 100.21094,110.14226 -11.292042,58.25558 19.843752,3.59077 18.00111,2.88207 8.45722,1.08668 6.1646,-46.7145 -17.57297,-2.67269 2.00621,-11.93944 z"
       id="path207"
       inkscape:connector-curvature="0" />
  </g>
  <g
     inkscape:groupmode="layer"
     id="layer45"
     inkscape:label="Arizona"
     style="display:none"
     transform="translate(-437.2384,-130.86856)">
    <path
       style="fill:#ff7f2a;stroke:#000000;stroke-width:0.5;stroke-linecap:round;stroke-linejoin:round;stroke-miterlimit:4;stroke-dasharray:none;stroke-opacity:1"
       d="m 125.62984,242.85915 -20.36347,-3.11831 -33.437684,-20.16088 1.202711,-2.07134 1.937705,-0.46772 0.801809,-2.47224 -1.737251,-0.735 0.200451,-4.14267 1.269529,-0.66817 1.469982,-1.26954 0.200454,-2.80633 1.135896,-2.3386 2.739511,-1.46999 0.534538,-0.60135 0.06682,-1.40317 -1.069078,-0.4009 -0.400905,-3.27405 -1.937702,-3.20724 0.801809,-1.73725 0.668173,-0.80181 0.46772,-11.55941 1.536801,-0.86862 1.00226,0.60136 1.135896,0.0668 0.935445,1.67044 1.069078,0.13363 1.269529,-1.26953 1.789033,-10.08943 19.85144,3.58309 14.62466,2.36366 4.02575,0.61806 7.80023,0.99471 z"
       id="path210"
       inkscape:connector-curvature="0" />
  </g>
  <g
     inkscape:groupmode="layer"
     id="layer46"
     inkscape:label="California"
     style="display:none"
     transform="translate(-437.2384,-130.86856)">
    <path
       style="fill:#ff2a2a;stroke:#000000;stroke-width:0.5;stroke-linecap:round;stroke-linejoin:round;stroke-miterlimit:4;stroke-dasharray:none;stroke-opacity:1"
       d="m 73.031397,217.50862 -0.567947,-0.41761 -15.919241,-1.77066 -7.834339,-1.36975 -0.0167,-7.2831 -1.403165,-1.90429 -0.517834,-1.57021 -2.572578,-2.73805 -1.157552,-2.12612 -2.527716,-0.18899 -0.732329,-0.14174 v -0.63784 l 0.779576,-0.28348 -0.496094,-1.74814 -0.874069,-1.32291 -2.574962,-0.23624 -2.173365,-1.2048 -1.110305,-2.64583 -2.220608,-2.78757 -1.606399,-0.0473 -2.055247,-1.11031 -2.834821,-0.94494 -1.582775,0.0945 -1.606399,-1.84264 1.582775,-6.07124 0.04725,-1.2048 -0.779576,-0.49609 -0.188988,-1.51191 -2.149739,-3.68527 -1.700893,-4.01599 -1.110305,-3.68527 -1.559152,-2.03162 -0.519717,-1.65365 0.496094,-2.64583 1.063058,-0.14174 0.755952,-0.87407 0.47247,-1.34654 -0.566964,-1.96075 -1.582775,-0.14175 -1.866258,-3.00018 -0.02362,-4.84282 0.850446,-3.35454 -3.118303,-3.40179 0.330729,-2.45684 0.09449,-1.46466 -2.1261163,-4.7247 -2.1733632,-3.77976 0.5669645,-2.78758 0.141741,-2.64583 1.0394344,-1.6064 -0.047247,-3.54352 -1.1811756,-4.016 -1.6536459,-2.31511 1.3701639,-3.96875 0.9449403,-0.37797 0.2834822,-0.85045 1.2284227,-0.85045 1.417411,-2.64583 1.74814,-3.96875 -0.04725,-4.015996 0.850447,-2.504094 14.59933,4.063246 20.457961,5.953125 -8.835191,34.490329 38.317336,57.85398 -0.612129,1.19886 1.937702,3.20724 0.400905,3.27405 1.069078,0.4009 -0.06682,1.40317 -0.53454,0.60135 -2.739509,1.46999 -1.135896,2.3386 -0.200454,2.80633 -1.469983,1.26954 -1.269529,0.66817 -0.200451,4.14267 1.737252,0.735 -0.801809,2.47224 z"
       id="path213"
       inkscape:connector-curvature="0" />
  </g>
  <g
     inkscape:groupmode="layer"
     id="layer47"
     inkscape:label="Nevada"
     style="display:none"
     transform="translate(-437.2384,-130.86856)">
    <path
       style="fill:#ff5555;stroke:#000000;stroke-width:0.5;stroke-linecap:round;stroke-linejoin:round;stroke-miterlimit:4;stroke-dasharray:none;stroke-opacity:1"
       d="m 49.373141,98.708431 25.295283,6.045859 25.542516,5.38797 -11.292042,58.25558 -1.789033,10.08942 -1.269529,1.26953 -1.069078,-0.13363 -0.935445,-1.67044 -1.135896,-0.0668 -1.00226,-0.60136 -1.536801,0.86862 -0.46772,11.55941 -0.668173,0.80181 -0.189677,0.53834 -38.317336,-57.85398 z"
       id="path216"
       inkscape:connector-curvature="0" />
  </g>
  <g
     inkscape:groupmode="layer"
     id="layer48"
     inkscape:label="Oregon"
     style="display:none"
     transform="translate(-437.2384,-130.86856)">
    <path
       style="fill:#ff5555;stroke:#000000;stroke-width:0.5;stroke-linecap:round;stroke-linejoin:round;stroke-miterlimit:4;stroke-dasharray:none;stroke-opacity:1"
       d="M 74.668424,104.75429 49.373141,98.708431 14.315851,88.69206 l -1.464661,-2.3623 1.133929,-3.590774 0.188988,-5.008185 4.91369,-6.709076 4.535715,-9.165923 1.606398,-5.669643 2.36235,-4.535715 3.401788,-9.071427 3.307292,-0.850448 0.661458,1.13393 0.755952,0.661459 h 1.984375 l 1.322916,2.267857 -0.661458,4.346726 -0.755952,0.472469 2.078868,0.661458 1.984375,1.322917 2.929316,-0.09449 1.322917,-0.661459 8.220982,2.551341 1.41741,-0.566966 2.645834,1.322917 3.685267,-1.228423 0.472472,0.850447 7.9375,-0.09449 15.523355,3.775591 1.069078,2.605876 1.403165,0.935445 0.06682,2.204974 -3.908817,5.078119 -0.935445,0.968853 0.133636,1.369756 -1.236123,1.135896 -0.868624,0.03341 -2.204974,3.073598 -0.133636,1.670434 -0.367496,0.634767 0.334087,0.400905 1.670436,-0.03341 0.701583,1.336347 -0.768398,1.169305 z"
       id="path219"
       inkscape:connector-curvature="0" />
  </g>
  <g
     inkscape:groupmode="layer"
     id="layer49"
     inkscape:label="Washington"
     style="display:none"
     transform="translate(-437.2384,-130.86856)">
    <path
       style="fill:#ff8080;stroke:#000000;stroke-width:0.5;stroke-linecap:round;stroke-linejoin:round;stroke-miterlimit:4;stroke-dasharray:none;stroke-opacity:1"
       d="m 33.371105,41.954305 -0.02923,-0.676525 -0.952148,-0.618061 -0.851921,0.668173 c 0,0 -1.252826,-1.586912 -1.252826,-1.670433 0,-0.08352 0.584652,-1.520098 0.584652,-1.520098 l 1.035669,-0.05011 1.03567,-2.372016 -1.603616,-0.668176 0.434311,-1.904293 2.238383,-0.06682 -1.820773,-1.820775 -0.484426,-3.892111 0.250564,-1.236122 0.03341,-4.593695 -1.102487,-1.5368 1.085784,-3.674956 0.150339,-1.403165 1.336347,0.417609 2.539061,2.80633 6.631625,3.006782 2.405425,0.785104 1.637027,0.317388 -0.183748,-1.603617 1.854182,-1.169304 0.300678,1.486687 -1.419868,0.200452 0.0167,1.202712 1.202714,0.835218 0.751694,2.455539 0.902036,-0.116931 0.100227,-0.801809 -0.634767,-1.035669 -0.23386,-1.804069 0.534537,-0.851922 -0.517834,-1.620321 1.052375,-2.088043 -1.80407,-4.2262 0.501132,-0.634765 43.815497,11.525998 -6.815373,30.034415 -0.267269,4.409953 -15.523355,-3.775591 -7.9375,0.09449 -0.472472,-0.850448 -3.685267,1.228423 -2.645834,-1.322916 -1.41741,0.566965 -8.220982,-2.55134 -1.322917,0.661458 -2.929316,0.09449 -1.984375,-1.322917 -2.078868,-0.661458 0.755952,-0.472472 0.661458,-4.346726 -1.322916,-2.267857 H 35.71875 l -0.755952,-0.661459 -0.661458,-1.13393 z"
       id="path222"
       inkscape:connector-curvature="0"
       sodipodi:nodetypes="ccccsccccccccccccccccccccccccccccccccccccccccccccccccccccccc" />
    <path
       style="fill:#ff8080;stroke:#000000;stroke-width:0.5;stroke-linecap:round;stroke-linejoin:round;stroke-miterlimit:4;stroke-dasharray:none;stroke-opacity:1"
       d="m 46.805574,17.323748 c -0.100224,0 -1.11919,-0.668174 -1.11919,-0.668174 l 0.434314,-1.102487 1.102487,-0.233861 0.851921,1.102487 z"
       id="path226"
       inkscape:connector-curvature="0"
       sodipodi:nodetypes="cccccc" />
    <path
       style="fill:#ff8080;stroke:#000000;stroke-width:0.5;stroke-linecap:round;stroke-linejoin:round;stroke-miterlimit:4;stroke-dasharray:none;stroke-opacity:1"
       d="m 47.356818,17.006365 0.41761,0.88533 -0.985557,1.319644 -1.035669,-0.400904 0.334087,-0.551244 0.718285,-0.935443 z"
       id="path228"
       inkscape:connector-curvature="0" />
    <path
       style="fill:#ff8080;stroke:#000000;stroke-width:0.5;stroke-linecap:round;stroke-linejoin:round;stroke-miterlimit:4;stroke-dasharray:none;stroke-opacity:1"
       d="m 45.67606,17.797953 c 0.117859,-0.02956 -0.272437,-2.182318 -0.484283,-2.208799 l -1.27567,0.248047 0.744141,1.700893 0.602401,0.720517 z"
       id="path232"
       inkscape:connector-curvature="0"
       sodipodi:nodetypes="cccccc" />
  </g>
  <g
     inkscape:groupmode="layer"
     id="layer50"
     inkscape:label="Alaska"
     style="display:none"
     transform="translate(-437.2384,-130.86856)">
    <path
       style="fill:#ff2a2a;stroke:#000000;stroke-width:0.5;stroke-linecap:round;stroke-linejoin:round;stroke-miterlimit:4;stroke-dasharray:none;stroke-opacity:1"
       d="m 83.438242,253.30074 -4.488465,-2.83482 -2.504094,0.99219 -2.409597,-1.41741 -0.992188,0.61421 -3.401785,-2.55134 -3.732516,0.0945 -0.708705,-0.85044 -0.708705,-2.4096 -1.889882,0.0472 -0.803198,1.03944 -0.377976,-0.61421 0.472469,-0.99219 -3.449032,-2.74033 -1.937128,2.31511 -2.078868,0.0945 -0.708708,-0.89769 -4.11049,2.03162 -0.94494,-0.66146 -1.6064,1.03944 -0.377975,1.84263 -2.55134,2.03162 -2.434672,-0.0598 -1.002261,-0.4009 -1.770663,0.20045 -1.369756,0.86862 3.140419,5.51244 0.167042,1.77066 -0.367495,0.70158 2.104747,1.50339 c 0,0 -0.300678,0.26727 -0.23386,0.40091 0.06682,0.13363 1.570207,4.07586 1.570207,4.07586 l -1.23612,0.66816 -3.942226,-1.73724 0.835218,-1.26953 0.501129,-0.96885 -1.23612,-0.70158 -2.973374,0.43431 -0.334087,0.43431 0.167042,0.66817 -0.668409,-0.82072 -5.044477,0.28619 -0.250563,0.65146 1.23612,1.8876 1.135896,0.96885 -0.53454,3.30745 1.987817,1.98782 2.655991,0.0668 2.772923,1.1693 3.207234,-0.85193 0.534538,1.10249 -0.751695,0.71829 -0.634764,4.12597 -1.80407,0.7517 -1.837478,-0.7684 -1.586912,1.20272 -1.269532,0.16703 -0.08352,-1.21941 -1.319644,-0.76841 -1.65373,0.81852 -1.302938,2.00451 -3.791887,2.57249 -0.350791,2.57246 0.684878,1.36975 0.668173,-0.0501 0.217157,0.3842 -0.584652,0.46773 0.08352,1.20272 -1.269531,0.40089 c 0,0 1.319643,2.30521 1.319643,2.43883 0,0.13364 0.451017,2.43885 0.451017,2.43885 l 0.501131,0.41759 3.107008,-0.0668 0.785103,-0.81851 0.484428,0.68487 -0.03341,2.65599 0.31738,0.68488 -1.486685,0.33409 0.08352,0.75171 0.23386,0.90201 -0.167042,1.0691 -1.052375,0.7851 1.336349,0.0334 1.419868,-0.90201 2.321904,0.10022 -0.01669,0.98555 0.7684,0.23386 0.567947,-0.81851 0.484425,2.58918 0.434314,1.1693 0.718285,-0.15033 -0.11693,-1.75398 0.584653,-0.50112 0.701582,0.11695 0.400905,1.35302 1.804069,-0.35078 1.00226,-0.91874 -0.400904,1.72056 -0.567947,0.60134 -2.522355,4.82756 -2.372018,0.55124 -0.367496,2.05464 -0.785103,-0.26728 -4.643808,1.30294 -1.00226,1.45328 -0.434314,-0.23384 -0.801809,-0.75171 -1.553504,0.0668 -2.574227,0.85458 -1.086681,1.27566 -2.102493,0.63783 -3.260044,-0.21259 -1.653646,0.59057 -0.259859,1.01582 1.133929,0.68509 0.590588,-0.87408 1.275669,0.0473 1.157552,0.61421 1.582776,-0.16537 c 0,0 1.370163,-1.01581 1.535528,-0.96856 0.165364,0.0473 1.866257,0.0945 1.866257,0.0945 l 1.228422,-1.03941 2.315104,0.66146 3.000179,-1.22844 -0.188989,1.20481 0.590589,0.0236 0.519716,-1.18118 1.771764,-0.0236 1.346541,0.6142 0.921316,-1.5119 -0.94494,-0.89768 5.882253,-1.65365 8.50491,-4.97755 1.603618,-1.80409 -0.200454,-1.21941 -1.386459,-0.43432 0.300678,-1.13588 1.553504,-1.0858 2.271792,-0.73498 1.219417,-2.3386 1.720548,-2.17157 2.455537,-1.68714 2.271792,0.31739 0.584652,1.43656 -1.553503,0.0167 -0.718289,-0.50115 c 0,0 -2.00452,0.85193 -2.071338,0.95216 -0.06682,0.10022 -0.01669,1.45327 -0.01669,1.45327 l -1.46998,2.40544 -0.150342,0.96885 0.868628,0.23386 -0.100227,0.83521 -1.603616,0.26726 0.05011,0.90204 2.405425,0.28398 1.33635,-0.63476 0.618058,-0.20045 1.002263,-1.35305 1.703843,-1.26955 1.419868,1.17766 0.801809,-0.5596 0.579599,0.43953 0.992187,-0.44887 0.259858,-1.20478 -0.850445,-0.23624 0.07087,-2.24422 2.338729,-0.85046 1.370163,0.189 0.897694,2.14974 0.566965,0.85045 h 1.01581 l 3.543527,2.05523 0.377976,-0.21262 3.152693,0.29834 4.209494,1.70387 3.107007,-1.60362 -0.701582,2.63927 5.144939,3.14042 2.605879,2.43883 1.436574,-0.20045 -0.835219,0.90204 v 1.20272 l 1.069079,0.70157 1.035669,1.73725 0.03341,1.60361 1.269531,0.23387 1.904301,3.27406 0.66817,1.00227 0.0668,-3.60815 0.4009,0.50112 0.46773,3.44112 0.93544,-0.26728 0.53454,-1.67045 0.20045,0.13364 -0.16704,2.20498 0.86862,1.06908 -0.90203,1.00227 0.73499,0.83521 0.66817,-0.53454 0.66818,2.10473 1.13589,1.30294 0.73499,-0.23386 -0.70158,-1.23611 -0.23386,-0.86862 1.36976,0.93543 0.43431,0.80182 1.03567,-0.10022 -0.0668,-1.93771 -0.86862,-1.57022 0.60135,-0.4009 2.33861,1.60362 0.46772,1.33635 0.90204,0.56796 1.10248,-1.30294 0.30068,-1.70387 -0.73499,-3.74176 -5.57925,-2.17157 -0.60136,-2.03792 -2.33861,-2.87314 -2.3052,-3.8086 -2.07133,-1.00227 -0.400914,-1.33635 -1.135896,-0.30068 -0.367496,-1.97109 -1.336346,-0.73501 -1.002261,0.46773 -0.7684,0.30067 -0.501131,1.50339 v 0.7684 l -2.505652,1.50339 -0.434311,-0.53454 -0.334087,-1.20271 -3.34087,-3.44109 -0.133635,-1.5702 -1.069078,-0.10022 -0.935443,0.73498 -1.904296,-0.20045 -1.269529,-0.73498 z"
       id="path235"
       inkscape:connector-curvature="0" />
    <path
       style="fill:#ff2a2a;stroke:#000000;stroke-width:0.5;stroke-linecap:round;stroke-linejoin:round;stroke-miterlimit:4;stroke-dasharray:none;stroke-opacity:1"
       d="m 19.377041,266.30201 0.902034,1.97112 1.837478,0.56795 0.968852,3.34087 -1.637026,-0.26728 -0.785104,-2.18826 -1.169304,-0.73499 -1.119191,0.13364 -0.05011,-1.47 z"
       id="path237"
       inkscape:connector-curvature="0" />
    <path
       style="fill:#ff2a2a;stroke:#000000;stroke-width:0.5;stroke-linecap:round;stroke-linejoin:round;stroke-miterlimit:4;stroke-dasharray:none;stroke-opacity:1"
       d="m 8.8351933,279.14486 0.9921875,0.23625 0.4724702,1.37014 0.496094,0.80322 -0.8504465,0.44884 -0.779576,-1.3938 z"
       id="path239"
       inkscape:connector-curvature="0" />
    <path
       style="fill:#ff2a2a;stroke:#000000;stroke-width:0.5;stroke-linecap:round;stroke-linejoin:round;stroke-miterlimit:4;stroke-dasharray:none;stroke-opacity:1"
       d="m 25.182664,288.52339 -0.566965,-0.8032 -1.984375,-0.33073 -1.913504,-0.44884 -0.09449,1.08667 2.007998,2.03163 1.559152,0.3071 z"
       id="path241"
       inkscape:connector-curvature="0" />
    <path
       style="fill:#ff2a2a;stroke:#000000;stroke-width:0.5;stroke-linecap:round;stroke-linejoin:round;stroke-miterlimit:4;stroke-dasharray:none;stroke-opacity:1"
       d="m 12.567708,317.22597 -0.933129,1.2166 -2.2087979,0.40162 -1.7245163,-0.55518 -1.7363281,-0.28347 -2.9056919,0.94493 -0.7677642,-0.43701 2.5277158,-1.32292 2.7993861,-0.0355 -0.011811,1.09849 0.779576,-0.0236 1.1339285,-1.00398 0.082682,-0.94494 1.381976,-0.31893 z"
       id="path243"
       inkscape:connector-curvature="0" />
    <path
       style="fill:#ff2a2a;stroke:#000000;stroke-width:0.5;stroke-linecap:round;stroke-linejoin:round;stroke-miterlimit:4;stroke-dasharray:none;stroke-opacity:1"
       d="m 30.652474,316.43177 -1.378109,0.7851 -0.785104,-1.328 1.486686,-0.16706 z"
       id="path245"
       inkscape:connector-curvature="0" />
    <path
       style="fill:#ff2a2a;stroke:#000000;stroke-width:0.5;stroke-linecap:round;stroke-linejoin:round;stroke-miterlimit:4;stroke-dasharray:none;stroke-opacity:1"
       d="m 31.972117,316.66561 -1.269531,-0.0334 -0.776751,1.34469 1.428221,-0.11692 0.65147,-1.18602 z"
       id="path247"
       inkscape:connector-curvature="0" />
    <path
       style="fill:#ff2a2a;stroke:#000000;stroke-width:0.5;stroke-linecap:round;stroke-linejoin:round;stroke-miterlimit:4;stroke-dasharray:none;stroke-opacity:1"
       d="m 43.648455,316.02251 -1.177658,0.70157 0.810162,1.03566 c 0,0 0.902034,-0.55124 0.88533,-0.58465 -0.01669,-0.0334 -0.517834,-1.15258 -0.517834,-1.15258 z"
       id="path249"
       inkscape:connector-curvature="0" />
    <path
       style="fill:#ff2a2a;stroke:#000000;stroke-width:0.5;stroke-linecap:round;stroke-linejoin:round;stroke-miterlimit:4;stroke-dasharray:none;stroke-opacity:1"
       d="m 54.706731,310.75227 c -0.06682,-0.11691 -0.968851,-1.13588 -0.968851,-1.13588 l -0.06682,-1.38647 -0.835218,0.81852 -2.138156,-0.76841 -3.123713,1.60362 0.133635,1.97112 0.300678,1.2361 1.687139,0.46773 z"
       id="path251"
       inkscape:connector-curvature="0" />
    <path
       style="fill:#ff2a2a;stroke:#000000;stroke-width:0.5;stroke-linecap:round;stroke-linejoin:round;stroke-miterlimit:4;stroke-dasharray:none;stroke-opacity:1"
       d="m 55.725697,306.60959 -1.637027,1.03568 -1.403165,0.65146 -1.286235,-0.98555 1.77066,-1.35305 1.937706,-1.45328 -1.119193,1.33636 0.7684,0.41759 z"
       id="path253"
       inkscape:connector-curvature="0" />
    <path
       style="fill:#ff2a2a;stroke:#000000;stroke-width:0.5;stroke-linecap:round;stroke-linejoin:round;stroke-miterlimit:4;stroke-dasharray:none;stroke-opacity:1"
       d="m 67.598678,298.25629 -0.708705,-0.22444 0.283483,-0.98036 0.826823,-0.0709 z"
       id="path255"
       inkscape:connector-curvature="0" />
    <path
       style="fill:#ff2a2a;stroke:#000000;stroke-width:0.5;stroke-linecap:round;stroke-linejoin:round;stroke-miterlimit:4;stroke-dasharray:none;stroke-opacity:1"
       d="m 68.945219,297.7838 c -0.03543,0.0473 -1.252045,1.35837 -1.252045,1.35837 l -0.389776,0.62603 -0.885894,0.85043 0.720516,0.79139 1.027623,-1.1103 0.779576,-0.70871 z"
       id="path257"
       inkscape:connector-curvature="0" />
    <path
       style="fill:#ff2a2a;stroke:#000000;stroke-width:0.5;stroke-linecap:round;stroke-linejoin:round;stroke-miterlimit:4;stroke-dasharray:none;stroke-opacity:1"
       d="m 71.248513,297.772 c -0.04725,-0.0236 -1.287484,0.0119 -1.287484,0.0119 l -0.188987,1.3938 0.519716,0.25984 0.93313,-0.75594 z"
       id="path259"
       inkscape:connector-curvature="0" />
  </g>
  <g
     inkscape:groupmode="layer"
     id="layer51"
     inkscape:label="Hawaii"
     style="display:none"
     transform="translate(-437.2384,-130.86856)">
    <path
       style="fill:#ff7f2a;stroke:#000000;stroke-width:0.5;stroke-linecap:round;stroke-linejoin:round;stroke-miterlimit:4;stroke-dasharray:none;stroke-opacity:1"
       d="m 175.06154,322.67919 -2.73952,-1.67045 -0.0334,-2.50566 0.53454,-0.96885 -0.83522,-3.14042 -1.46998,-1.00224 -0.0668,-1.30294 1.36976,-0.56795 1.23612,-2.03793 -0.735,-0.90204 v -1.53681 l 0.66818,-0.66815 7.684,4.00904 1.03567,1.77065 0.86862,2.07134 2.20498,1.26953 -0.30068,0.90204 -1.63703,1.50339 -2.7061,0.90204 -0.7684,-0.3007 -1.5368,1.00227 z"
       id="path262"
       inkscape:connector-curvature="0" />
    <path
       style="fill:#ff7f2a;stroke:#000000;stroke-width:0.5;stroke-linecap:round;stroke-linejoin:round;stroke-miterlimit:4;stroke-dasharray:none;stroke-opacity:1"
       d="m 164.30152,297.66569 -0.85044,1.20481 2.59858,3.68527 1.51191,0.85043 1.98437,-0.42521 2.12612,-1.15756 0.28348,-1.11029 -2.55134,-1.51191 -2.57496,-0.40161 -2.3151,-1.55914 z"
       id="path264"
       inkscape:connector-curvature="0" />
    <path
       style="fill:#ff7f2a;stroke:#000000;stroke-width:0.5;stroke-linecap:round;stroke-linejoin:round;stroke-miterlimit:4;stroke-dasharray:none;stroke-opacity:1"
       d="m 162.55338,300.47689 -0.80319,-1.4174 -2.62222,-0.0472 1.06306,2.22062 0.63784,0.37795 1.29929,-0.40158 0.49609,-0.73234 z"
       id="path266"
       inkscape:connector-curvature="0" />
    <path
       style="fill:#ff7f2a;stroke:#000000;stroke-width:0.5;stroke-linecap:round;stroke-linejoin:round;stroke-miterlimit:4;stroke-dasharray:none;stroke-opacity:1"
       d="m 163.80543,296.10656 -0.4961,0.99218 -1.79538,0.75594 -2.4096,-0.18899 -2.7167,-1.03944 0.89769,-1.03942 2.50409,0.44884 1.2048,-0.16536 z"
       id="path268"
       inkscape:connector-curvature="0" />
    <path
       style="fill:#ff7f2a;stroke:#000000;stroke-width:0.5;stroke-linecap:round;stroke-linejoin:round;stroke-miterlimit:4;stroke-dasharray:none;stroke-opacity:1"
       d="m 149.37025,289.3373 2.37202,4.09257 1.55351,0.88532 -0.90204,0.86863 -2.00452,0.0501 -0.66817,-0.73498 -1.73725,0.56795 -1.9043,-2.90655 0.0668,-1.35305 z"
       id="path270"
       inkscape:connector-curvature="0" />
    <path
       style="fill:#ff7f2a;stroke:#000000;stroke-width:0.5;stroke-linecap:round;stroke-linejoin:round;stroke-miterlimit:4;stroke-dasharray:none;stroke-opacity:1"
       d="m 129.97656,284.55464 -0.49609,1.98437 3.1183,1.44105 1.15755,-0.16536 0.85045,-2.008 -0.21261,-1.8899 -2.22061,-0.23622 z"
       id="path272"
       inkscape:connector-curvature="0" />
    <path
       style="fill:#ff7f2a;stroke:#000000;stroke-width:0.5;stroke-linecap:round;stroke-linejoin:round;stroke-miterlimit:4;stroke-dasharray:none;stroke-opacity:1"
       d="m 126.07868,286.46815 0.14174,0.8032 -1.06305,1.3938 -1.41742,0.11811 1.11031,-2.12611 z"
       id="path274"
       inkscape:connector-curvature="0" />
  </g>
  <g
     inkscape:groupmode="layer"
     id="layer53"
     inkscape:label="Legend"
     style="display:none"
     transform="translate(-437.2384,-130.86856)">
    <path
       style="fill:none;stroke:#000000;stroke-width:0.26458332px;stroke-linecap:butt;stroke-linejoin:miter;stroke-opacity:1"
       d="m 269.20721,304.43805 v 6.08036"
       id="path163"
       inkscape:connector-curvature="0" />
    <path
       style="fill:none;stroke:#000000;stroke-width:0.26458332px;stroke-linecap:butt;stroke-linejoin:miter;stroke-opacity:1"
       d="m 269.20721,307.44482 51.18214,0.0668"
       id="path166"
       inkscape:connector-curvature="0" />
    <path
       style="fill:none;stroke:#000000;stroke-width:0.26458332px;stroke-linecap:butt;stroke-linejoin:miter;stroke-opacity:1"
       d="m 320.38935,307.5116 -0.007,-3.23132"
       id="path193"
       inkscape:connector-curvature="0" />
    <path
       style="fill:none;stroke:#000000;stroke-width:0.26458332px;stroke-linecap:butt;stroke-linejoin:miter;stroke-opacity:1"
       d="m 303.25501,304.48107 -0.0235,3.01201"
       id="path196"
       inkscape:connector-curvature="0" />
    <path
       style="fill:none;stroke:#000000;stroke-width:0.26458332px;stroke-linecap:butt;stroke-linejoin:miter;stroke-opacity:1"
       d="m 301.56594,307.51671 -0.0236,3.16553"
       id="path199"
       inkscape:connector-curvature="0" />
    <path
       style="fill:none;stroke:#000000;stroke-width:0.26458332px;stroke-linecap:butt;stroke-linejoin:miter;stroke-opacity:1"
       d="m 290.84087,307.50488 -0.0709,3.23644"
       id="path202"
       inkscape:connector-curvature="0" />
    <path
       style="fill:none;stroke:#000000;stroke-width:0.26458332px;stroke-linecap:butt;stroke-linejoin:miter;stroke-opacity:1"
       d="m 286.31697,304.51652 -0.0709,2.94111"
       id="path205"
       inkscape:connector-curvature="0" />
    <path
       style="fill:none;stroke:#000000;stroke-width:0.26458332px;stroke-linecap:butt;stroke-linejoin:miter;stroke-opacity:1"
       d="m 280.02129,307.45763 -0.0591,3.22461"
       id="path208"
       inkscape:connector-curvature="0" />
    <path
       style="fill:none;stroke:#000000;stroke-width:0.26458332px;stroke-linecap:butt;stroke-linejoin:miter;stroke-opacity:1"
       d="m 145.89575,318.9207 17.79013,0.0167 0.0167,-3.09029"
       id="path211"
       inkscape:connector-curvature="0" />
    <path
       style="fill:none;stroke:#000000;stroke-width:0.26458332px;stroke-linecap:butt;stroke-linejoin:miter;stroke-opacity:1"
       d="m 145.91245,315.93062 -0.0167,2.99008"
       id="path214"
       inkscape:connector-curvature="0" />
    <path
       style="fill:none;stroke:#000000;stroke-width:0.26458332px;stroke-linecap:butt;stroke-linejoin:miter;stroke-opacity:1"
       d="m 145.89575,318.9207 -0.0334,3.14042"
       id="path217"
       inkscape:connector-curvature="0" />
    <path
       style="fill:none;stroke:#000000;stroke-width:0.26458332px;stroke-linecap:butt;stroke-linejoin:miter;stroke-opacity:1"
       d="m 156.68676,318.95412 v 3.1237"
       id="path220"
       inkscape:connector-curvature="0" />
    <path
       style="fill:none;stroke:#000000;stroke-width:0.26458332px;stroke-linecap:butt;stroke-linejoin:miter;stroke-opacity:1"
       d="m 72.169829,318.99772 h 14.481212 l -0.02362,-3.30728"
       id="path223"
       inkscape:connector-curvature="0" />
    <path
       style="fill:none;stroke:#000000;stroke-width:0.26458332px;stroke-linecap:butt;stroke-linejoin:miter;stroke-opacity:1"
       d="m 72.240697,315.8558 -0.09449,6.30748"
       id="path231"
       inkscape:connector-curvature="0" />
    <path
       style="fill:none;stroke:#000000;stroke-width:0.26458332px;stroke-linecap:butt;stroke-linejoin:miter;stroke-opacity:1"
       d="m 80.886902,318.90324 -0.02363,3.1183"
       id="path233"
       inkscape:connector-curvature="0" />
    <text
       xml:space="preserve"
       style="font-style:normal;font-weight:normal;font-size:2.82222223px;line-height:1.25;font-family:sans-serif;letter-spacing:0px;word-spacing:0px;fill:#000000;fill-opacity:1;stroke:none;stroke-width:0.26458332"
       x="70.988655"
       y="315.21799"
       id="text237"><tspan
         sodipodi:role="line"
         id="tspan235"
         x="70.988655"
         y="315.21799"
         style="font-size:2.82222223px;stroke-width:0.26458332">0</tspan></text>
    <text
       xml:space="preserve"
       style="font-style:normal;font-weight:normal;font-size:2.82222223px;line-height:1.25;font-family:sans-serif;letter-spacing:0px;word-spacing:0px;fill:#000000;fill-opacity:1;stroke:none;stroke-width:0.26458332"
       x="71.201263"
       y="324.83276"
       id="text241"><tspan
         sodipodi:role="line"
         id="tspan239"
         x="71.201263"
         y="324.83276"
         style="font-size:2.82222223px;stroke-width:0.26458332">0</tspan></text>
    <text
       xml:space="preserve"
       style="font-style:normal;font-weight:normal;font-size:10.58333302px;line-height:1.25;font-family:sans-serif;letter-spacing:0px;word-spacing:0px;fill:#000000;fill-opacity:1;stroke:none;stroke-width:0.26458332"
       x="78.004837"
       y="324.64377"
       id="text245"><tspan
         sodipodi:role="line"
         id="tspan243"
         x="78.004837"
         y="324.64377"
         style="font-size:2.82222223px;stroke-width:0.26458332">200</tspan></text>
    <text
       xml:space="preserve"
       style="font-style:normal;font-weight:normal;font-size:2.82222223px;line-height:1.25;font-family:sans-serif;letter-spacing:0px;word-spacing:0px;fill:#000000;fill-opacity:1;stroke:none;stroke-width:0.26458332"
       x="84.005211"
       y="315.24155"
       id="text249"><tspan
         sodipodi:role="line"
         id="tspan247"
         x="84.005211"
         y="315.24155"
         style="font-size:2.82222223px;stroke-width:0.26458332">200</tspan></text>
    <text
       xml:space="preserve"
       style="font-style:normal;font-weight:normal;font-size:2.82222223px;line-height:1.25;font-family:sans-serif;letter-spacing:0px;word-spacing:0px;fill:#000000;fill-opacity:1;stroke:none;stroke-width:0.26458332"
       x="145.09561"
       y="315.19437"
       id="text253"><tspan
         sodipodi:role="line"
         id="tspan251"
         x="145.09561"
         y="315.19437"
         style="font-size:2.82222223px;stroke-width:0.26458332">0</tspan></text>
    <text
       xml:space="preserve"
       style="font-style:normal;font-weight:normal;font-size:2.82222223px;line-height:1.25;font-family:sans-serif;letter-spacing:0px;word-spacing:0px;fill:#000000;fill-opacity:1;stroke:none;stroke-width:0.26458332"
       x="145.0956"
       y="324.83273"
       id="text257"><tspan
         sodipodi:role="line"
         id="tspan255"
         x="145.0956"
         y="324.83273"
         style="font-size:2.82222223px;stroke-width:0.26458332">0</tspan></text>
    <text
       xml:space="preserve"
       style="font-style:normal;font-weight:normal;font-size:10.58333302px;line-height:1.25;font-family:sans-serif;letter-spacing:0px;word-spacing:0px;fill:#000000;fill-opacity:1;stroke:none;stroke-width:0.26458332"
       x="153.78905"
       y="324.78549"
       id="text261"><tspan
         sodipodi:role="line"
         id="tspan259"
         x="153.78905"
         y="324.78549"
         style="font-size:2.82222223px;stroke-width:0.26458332">100km</tspan></text>
    <text
       xml:space="preserve"
       style="font-style:normal;font-weight:normal;font-size:2.82222223px;line-height:1.25;font-family:sans-serif;letter-spacing:0px;word-spacing:0px;fill:#000000;fill-opacity:1;stroke:none;stroke-width:0.26458332"
       x="161.20979"
       y="315.22205"
       id="text265"><tspan
         sodipodi:role="line"
         id="tspan263"
         x="161.20979"
         y="315.22205"
         style="font-size:2.82222223px;stroke-width:0.26458332">100mi</tspan></text>
    <text
       xml:space="preserve"
       style="font-style:normal;font-weight:normal;font-size:2.82222223px;line-height:1.25;font-family:sans-serif;letter-spacing:0px;word-spacing:0px;display:inline;fill:#000000;fill-opacity:1;stroke:none;stroke-width:0.26458332"
       x="268.33862"
       y="303.97034"
       id="text269"><tspan
         sodipodi:role="line"
         id="tspan267"
         x="268.33862"
         y="303.97034"
         style="font-size:2.82222223px;stroke-width:0.26458332">0</tspan></text>
    <text
       xml:space="preserve"
       style="font-style:normal;font-weight:normal;font-size:2.82222223px;line-height:1.25;font-family:sans-serif;letter-spacing:0px;word-spacing:0px;display:inline;fill:#000000;fill-opacity:1;stroke:none;stroke-width:0.26458332"
       x="268.33862"
       y="313.05746"
       id="text273"><tspan
         sodipodi:role="line"
         id="tspan271"
         x="268.33862"
         y="313.05746"
         style="font-size:2.82222223px;stroke-width:0.26458332">0</tspan></text>
    <text
       xml:space="preserve"
       style="font-style:normal;font-weight:normal;font-size:2.82222223px;line-height:1.25;font-family:sans-serif;letter-spacing:0px;word-spacing:0px;display:inline;fill:#000000;fill-opacity:1;stroke:none;stroke-width:0.26458332"
       x="276.98907"
       y="313.19922"
       id="text277"><tspan
         sodipodi:role="line"
         id="tspan275"
         x="276.98907"
         y="313.19922"
         style="font-size:2.82222223px;stroke-width:0.26458332">100</tspan></text>
    <text
       xml:space="preserve"
       style="font-style:normal;font-weight:normal;font-size:2.82222223px;line-height:1.25;font-family:sans-serif;letter-spacing:0px;word-spacing:0px;display:inline;fill:#000000;fill-opacity:1;stroke:none;stroke-width:0.26458332"
       x="283.24591"
       y="303.90231"
       id="text281"><tspan
         sodipodi:role="line"
         id="tspan279"
         x="283.24591"
         y="303.90231"
         style="font-size:2.82222223px;stroke-width:0.26458332">100</tspan></text>
    <text
       xml:space="preserve"
       style="font-style:normal;font-weight:normal;font-size:2.82222223px;line-height:1.25;font-family:sans-serif;letter-spacing:0px;word-spacing:0px;display:inline;fill:#000000;fill-opacity:1;stroke:none;stroke-width:0.26458332"
       x="288.01785"
       y="313.06824"
       id="text285"><tspan
         sodipodi:role="line"
         id="tspan283"
         x="288.01785"
         y="313.06824"
         style="font-size:2.82222223px;stroke-width:0.26458332">200</tspan></text>
    <text
       xml:space="preserve"
       style="font-style:normal;font-weight:normal;font-size:2.82222223px;line-height:1.25;font-family:sans-serif;letter-spacing:0px;word-spacing:0px;display:inline;fill:#000000;fill-opacity:1;stroke:none;stroke-width:0.26458332"
       x="300.44382"
       y="303.8078"
       id="text289"><tspan
         sodipodi:role="line"
         id="tspan287"
         x="300.44382"
         y="303.8078"
         style="font-size:2.82222223px;stroke-width:0.26458332">200</tspan></text>
    <text
       xml:space="preserve"
       style="font-style:normal;font-weight:normal;font-size:2.82222223px;line-height:1.25;font-family:sans-serif;letter-spacing:0px;word-spacing:0px;display:inline;fill:#000000;fill-opacity:1;stroke:none;stroke-width:0.26458332"
       x="298.88464"
       y="313.16275"
       id="text293"><tspan
         sodipodi:role="line"
         id="tspan291"
         x="298.88464"
         y="313.16275"
         style="font-size:2.82222223px;stroke-width:0.26458332">300km</tspan></text>
    <text
       xml:space="preserve"
       style="font-style:normal;font-weight:normal;font-size:2.82222223px;line-height:1.25;font-family:sans-serif;letter-spacing:0px;word-spacing:0px;display:inline;fill:#000000;fill-opacity:1;stroke:none;stroke-width:0.26458332"
       x="317.5"
       y="303.90234"
       id="text297"><tspan
         sodipodi:role="line"
         id="tspan295"
         x="317.5"
         y="303.90234"
         style="font-size:2.82222223px;stroke-width:0.26458332">300mi</tspan></text>
  </g>
</svg>
