<?xml version="1.0" encoding="UTF-8" standalone="no"?>
<!-- Created with Inkscape (http://www.inkscape.org/) -->

<svg
   xmlns:dc="http://purl.org/dc/elements/1.1/"
   xmlns:cc="http://creativecommons.org/ns#"
   xmlns:rdf="http://www.w3.org/1999/02/22-rdf-syntax-ns#"
   xmlns:svg="http://www.w3.org/2000/svg"
   xmlns="http://www.w3.org/2000/svg"
   xmlns:sodipodi="http://sodipodi.sourceforge.net/DTD/sodipodi-0.dtd"
   xmlns:inkscape="http://www.inkscape.org/namespaces/inkscape"
   width="70.389999mm"
   height="67.247002mm"
   viewBox="0 0 70.389999 67.247002"
   version="1.1"
   id="svg3925"
   inkscape:version="0.92.3 (2405546, 2018-03-11)"
   sodipodi:docname="michigan.svg">
  <defs
     id="defs3919" />
  <sodipodi:namedview
     id="base"
     pagecolor="#ffffff"
     bordercolor="#666666"
     borderopacity="1.0"
     inkscape:pageopacity="0.0"
     inkscape:pageshadow="2"
     inkscape:zoom="1.4"
     inkscape:cx="311.95477"
     inkscape:cy="89.808502"
     inkscape:document-units="mm"
     inkscape:current-layer="layer1"
     showgrid="false"
     inkscape:window-width="1920"
     inkscape:window-height="1017"
     inkscape:window-x="1912"
     inkscape:window-y="-8"
     inkscape:window-maximized="1" />
  <metadata
     id="metadata3922">
    <rdf:RDF>
      <cc:Work
         rdf:about="">
        <dc:format>image/svg+xml</dc:format>
        <dc:type
           rdf:resource="http://purl.org/dc/dcmitype/StillImage" />
        <dc:title></dc:title>
      </cc:Work>
    </rdf:RDF>
  </metadata>
  <g
     inkscape:label="Layer 1"
     inkscape:groupmode="layer"
     id="layer1"
     style="display:inline"
     transform="translate(0,-229.753)">
    <path
       style="display:inline;fill:#2affd5;stroke:#000000;stroke-width:0.5;stroke-linecap:round;stroke-linejoin:round;stroke-miterlimit:4;stroke-dasharray:none;stroke-opacity:1"
       d="m 34.346684,296.74905 2.3386,-2.07134 0.26728,-1.73725 1.13589,-2.13816 1.06907,-6.21402 c 0,0 -1.73725,-4.27631 -1.80406,-4.6104 -0.0668,-0.33409 -2.53907,-4.81085 -2.53907,-4.81085 l 1.1359,-3.34087 -0.93543,-2.87315 1.06908,-2.67269 0.0668,-1.67044 0.53454,-1.20271 -0.60134,-1.60362 1.40316,-0.73499 v -1.67043 c 0,0 -0.40092,-1.00227 0,-1.00227 0.4009,0 2.13815,-1.06907 2.13815,-1.06907 l 0.93544,-2.20498 1.202709,-0.53454 0.20045,1.20272 -1.06908,2.00452 -0.13364,2.00452 0.53454,-0.0668 1.8709,-1.20271 -0.26726,-2.80633 -0.26728,-1.93771 0.93543,-1.00226 h 1.60362 l 0.93546,-0.60135 -1.40317,-0.80181 -0.60137,-2.00452 3.47451,-2.20498 1.80409,1.67044 1.73722,-0.53454 3.14042,1.73725 2.60589,0.86862 1.1359,-0.0668 0.53454,1.40317 1.20272,0.93544 0.20045,1.20272 -0.80182,-0.0668 -0.46771,0.73499 0.26726,0.73499 1.20272,1.00226 0.60134,0.66817 0.13364,5.7463 -1.33636,0.66817 -0.80179,3.14042 -1.87089,0.93544 -0.20045,2.6727 2.07134,1.26953 1.67042,-1.46998 0.93546,-2.00453 0.46771,-1.60361 3.14041,-1.40317 2.40544,2.07134 c 0,0 1.60361,5.67948 1.60361,6.01357 0,0.33408 1.20272,3.60813 1.20272,3.60813 l -0.20045,4.14268 -1.60361,1.46999 -0.66818,2.80633 c 0,0 -1.13589,1.06908 -1.33636,1.40317 -0.20045,0.33408 -0.26726,2.53906 -0.26726,2.53906 0,0 -0.86862,1.53679 -1.13591,1.60361 -0.26725,0.0668 -0.80179,1.73725 -0.80179,1.73725 l 0.26726,1.06908 -12.2944,2.00452 v -0.8018 z"
       id="path45"
       inkscape:connector-curvature="0" />
    <path
       style="display:inline;fill:#2affd5;stroke:#000000;stroke-width:0.5;stroke-linecap:round;stroke-linejoin:round;stroke-miterlimit:4;stroke-dasharray:none;stroke-opacity:1"
       d="m 24.272574,257.5945 -1.32292,-1.18117 -0.94493,-5.6224 -2.59861,-0.8032 -0.14174,-1.03943 -7.08705,-1.55916 -0.47246,-0.47246 -9.6856598,-2.07887 -1.74813002,-2.59859 0.85045002,-0.8032 1.4174,-0.23623 1.98438,-1.27567 0.0472,-0.8977 3.26004,-0.42522 2.4096098,-1.6064 1.51191,-0.7087 0.47247,-1.55916 1.13392,-1.03943 0.70872,-0.47247 2.12611,-2.07887 2.36233,-0.94494 2.12614,-0.18899 0.6142,0.8032 -2.36236,0.56697 -0.51972,1.65364 -1.55913,0.56697 -0.14174,0.99218 -1.46468,2.26786 0.0945,1.18118 0.56695,0.14174 0.80322,-0.99219 1.18115,-0.89769 0.99219,0.61421 3.73253,0.85044 0.75594,1.98438 1.65365,1.46466 1.65364,-0.23624 0.8032,-0.42522 1.74815,0.99219 0.80321,-0.56697 1.13391,-0.14174 3.44903,-2.69308 4.34675,-0.28348 4.441199,-1.79539 0.33074,3.30729 2.07889,0.23624 3.77975,-0.56697 0.89767,-1.18117 0.94497,0.47247 v 4.06324 l 2.40959,2.03162 0.99219,0.14175 -0.378,-1.03944 -0.51971,-0.61421 0.18898,-0.51972 h 2.26789 l 0.99218,1.46466 c 0,0 -0.51972,1.18117 -0.70871,1.22842 -0.18899,0.0472 -1.98437,-0.47247 -1.98437,-0.47247 0,0 -1.22845,0 -1.41744,0 -0.18896,0 -2.12611,-0.37797 -2.12611,-0.37797 0,0 -1.27565,0.42522 -1.55913,0.42522 -0.28351,0 -0.94497,0.0473 -0.94497,0.0473 l -1.65363,0.8032 -3.77977,-0.85045 -2.740319,0.18899 -1.27566,1.37016 -5.05543,0.85045 -1.13393,2.45685 -0.9922,-1.51191 -2.83482,1.37016 -0.8032,-1.03943 -0.75594,0.56696 -1.32292,5.14993 z"
       id="path147"
       inkscape:connector-curvature="0" />
  </g>
</svg>
