<?xml version="1.0" encoding="UTF-8" standalone="no"?>
<!-- Created with Inkscape (http://www.inkscape.org/) -->

<svg
   xmlns:dc="http://purl.org/dc/elements/1.1/"
   xmlns:cc="http://creativecommons.org/ns#"
   xmlns:rdf="http://www.w3.org/1999/02/22-rdf-syntax-ns#"
   xmlns:svg="http://www.w3.org/2000/svg"
   xmlns="http://www.w3.org/2000/svg"
   xmlns:sodipodi="http://sodipodi.sourceforge.net/DTD/sodipodi-0.dtd"
   xmlns:inkscape="http://www.inkscape.org/namespaces/inkscape"
   width="39.789001mm"
   height="45.389mm"
   viewBox="0 0 39.789001 45.389"
   version="1.1"
   id="svg3950"
   inkscape:version="0.92.3 (2405546, 2018-03-11)"
   sodipodi:docname="ohio.svg">
  <defs
     id="defs3944" />
  <sodipodi:namedview
     id="base"
     pagecolor="#ffffff"
     bordercolor="#666666"
     borderopacity="1.0"
     inkscape:pageopacity="0.0"
     inkscape:pageshadow="2"
     inkscape:zoom="2.8284271"
     inkscape:cx="95.396628"
     inkscape:cy="107.29733"
     inkscape:document-units="mm"
     inkscape:current-layer="layer1"
     showgrid="false"
     inkscape:window-width="1920"
     inkscape:window-height="1017"
     inkscape:window-x="1912"
     inkscape:window-y="-8"
     inkscape:window-maximized="1" />
  <metadata
     id="metadata3947">
    <rdf:RDF>
      <cc:Work
         rdf:about="">
        <dc:format>image/svg+xml</dc:format>
        <dc:type
           rdf:resource="http://purl.org/dc/dcmitype/StillImage" />
        <dc:title></dc:title>
      </cc:Work>
    </rdf:RDF>
  </metadata>
  <g
     inkscape:label="Layer 1"
     inkscape:groupmode="layer"
     id="layer1"
     transform="translate(0,-251.611)">
    <path
       style="display:inline;fill:#00ccff;stroke:#000000;stroke-width:0.5;stroke-linecap:round;stroke-linejoin:round;stroke-miterlimit:4;stroke-dasharray:none;stroke-opacity:1"
       d="m 0.24875858,260.48435 3.57175002,30.88374 3.4962799,-0.33073 1.32292,0.42522 0.99218,2.64583 3.2127895,-0.0472 0.99218,1.03943 1.13393,0.0945 1.13395,-0.8032 1.74813,0.0472 0.51972,0.8977 1.88986,-1.32292 1.65365,-0.85045 0.2835,1.46466 2.69306,1.74814 1.13395,0.37798 1.13393,-0.56697 0.18899,-1.6064 1.08667,-0.7087 0.0473,-3.44903 0.70868,-1.65365 1.27569,0.8032 0.0472,0.61421 0.80322,-0.37797 0.66146,-0.75596 -1.18118,-2.07887 2.65845,-3.50457 1.46998,-0.0668 4.04246,-4.37654 -0.10023,-10.12283 -0.20047,-0.73499 0.86863,-0.40091 -2.20496,-15.90253 c 0,0 -6.01358,3.14041 -6.41448,3.34087 -0.4009,0.20045 -3.20723,3.80859 -3.20723,3.80859 l -4.20949,1.13589 c 0,0 -1.73725,1.33635 -3.14042,0.80181 -1.40316,-0.53454 -0.86863,-0.33409 -1.67045,-1.06908 -0.80179,-0.73499 -3.67495,-0.0668 -3.94221,-0.0668 -0.26728,0 -2.20498,-1.33636 -2.20498,-1.33636 z"
       id="path48"
       inkscape:connector-curvature="0" />
  </g>
</svg>
